<svg width="98" height="71" viewBox="0 0 98 71" fill="none" xmlns="http://www.w3.org/2000/svg">
<g clip-path="url(#clip0_677_11881)">
<path d="M59.6058 33.5984C59.3018 33.598 59.0092 33.483 58.7875 33.2769C58.5657 33.0708 58.4313 32.7889 58.4114 32.4883L58.2335 29.797C58.2127 29.4826 58.3188 29.173 58.5285 28.9362C58.7381 28.6993 59.0341 28.5547 59.3514 28.5341L80.6317 27.1533C81.3088 27.1098 81.9757 27.3346 82.4857 27.7781C82.9956 28.2216 83.307 28.8476 83.3514 29.5186C83.3957 30.1895 83.1694 30.8504 82.7221 31.356C82.2749 31.8616 81.6433 32.1706 80.9662 32.2151L59.686 33.5958C59.6592 33.5975 59.6325 33.5984 59.6058 33.5984Z" fill="#FFC0CB"/>
<path d="M63.802 33.9452C63.4921 33.9447 63.1943 33.8254 62.9711 33.6122C62.7479 33.3991 62.6166 33.1086 62.6046 32.8017L62.453 28.7819C62.4471 28.6261 62.4723 28.4706 62.527 28.3243C62.5818 28.1781 62.6651 28.044 62.7722 27.9297C62.8793 27.8153 63.0081 27.723 63.1512 27.658C63.2942 27.593 63.4489 27.5565 63.6062 27.5507L81.1055 26.9027C81.4232 26.8909 81.7326 27.0047 81.9657 27.219C82.1987 27.4333 82.3363 27.7305 82.3482 28.0453L82.4999 32.0651C82.5058 32.2209 82.4806 32.3764 82.4258 32.5227C82.3711 32.6689 82.2878 32.803 82.1807 32.9173C82.0736 33.0317 81.9448 33.124 81.8017 33.189C81.6586 33.254 81.504 33.2905 81.3467 33.2963L63.8473 33.9443C63.8322 33.9449 63.817 33.9452 63.802 33.9452Z" fill="#2F2E41"/>
<path d="M84.3085 71.0002H81.5865C81.2686 70.9999 80.9639 70.8746 80.7392 70.652C80.5145 70.4293 80.3881 70.1274 80.3877 69.8125V47.3338C80.3881 47.0189 80.5145 46.7169 80.7392 46.4943C80.9639 46.2716 81.2686 46.1464 81.5865 46.146H84.3085C84.6263 46.1464 84.931 46.2716 85.1558 46.4943C85.3805 46.7169 85.5069 47.0189 85.5073 47.3338V69.8125C85.5069 70.1274 85.3805 70.4293 85.1558 70.652C84.931 70.8746 84.6263 70.9999 84.3085 71.0002Z" fill="#2F2E41"/>
<path d="M77.474 71.0002H74.752C74.4342 70.9999 74.1295 70.8746 73.9047 70.652C73.68 70.4293 73.5536 70.1274 73.5532 69.8125V47.3338C73.5536 47.0189 73.68 46.7169 73.9047 46.4943C74.1295 46.2716 74.4342 46.1464 74.752 46.146H77.474C77.7919 46.1464 78.0966 46.2716 78.3213 46.4943C78.546 46.7169 78.6724 47.0189 78.6728 47.3338V69.8125C78.6724 70.1274 78.546 70.4293 78.3213 70.652C78.0966 70.8746 77.7919 70.9999 77.474 71.0002Z" fill="#2F2E41"/>
<path d="M80.1742 22.6866C85.3688 22.6866 89.5799 18.5142 89.5799 13.3672C89.5799 8.22028 85.3688 4.04785 80.1742 4.04785C74.9796 4.04785 70.7686 8.22028 70.7686 13.3672C70.7686 18.5142 74.9796 22.6866 80.1742 22.6866Z" fill="#FFC0CB"/>
<path d="M75.083 16.5493C74.7805 16.4508 74.5027 16.2892 74.2684 16.0755C74.1132 15.9229 73.9935 15.7385 73.9178 15.5353C73.8421 15.332 73.8121 15.1148 73.83 14.8989C73.8398 14.7451 73.8854 14.5955 73.9633 14.4621C74.0411 14.3286 74.149 14.2147 74.2786 14.1294C74.6149 13.9156 75.0648 13.915 75.5228 14.115L75.5055 10.4768L75.8743 10.4751L75.8947 14.7521L75.6105 14.575C75.281 14.3699 74.8103 14.2256 74.4778 14.437C74.3956 14.4929 74.3275 14.5668 74.2789 14.6529C74.2302 14.7391 74.2022 14.8352 74.1972 14.9339C74.1847 15.0947 74.2074 15.2563 74.2637 15.4077C74.3199 15.5591 74.4085 15.6967 74.5232 15.8112C74.9305 16.1966 75.5247 16.3172 76.2023 16.4249L76.1439 16.7857C75.7838 16.7385 75.4288 16.6593 75.083 16.5493Z" fill="#2F2E41"/>
<path d="M71.7036 10.2935L71.6553 10.6558L73.6247 10.9135L73.673 10.5512L71.7036 10.2935Z" fill="#2F2E41"/>
<path d="M77.9196 11.1065L77.8713 11.4688L79.8408 11.7265L79.8891 11.3642L77.9196 11.1065Z" fill="#2F2E41"/>
<path d="M72.1675 53.3646C71.7519 53.3641 71.3534 53.2003 71.0595 52.9092C70.7656 52.618 70.6003 52.2232 70.5999 51.8114C70.5999 51.8114 73.099 38.376 74.5271 30.5014C74.8047 28.9701 75.6166 27.5843 76.821 26.5861C78.0254 25.588 79.5456 25.0411 81.1157 25.041C83.3647 25.041 85.5216 25.9262 87.1119 27.5019C88.7022 29.0776 89.5956 31.2147 89.5956 33.4431V36.0964C89.5956 40.6762 87.7594 45.0684 84.491 48.3069C81.2226 51.5453 76.7897 53.3646 72.1675 53.3646Z" fill="#2F2E41"/>
<path d="M84.034 52.0198C83.9376 52.2283 83.7824 52.4047 83.5871 52.5278C83.3919 52.6509 83.1649 52.7154 82.9334 52.7137L80.2115 52.6903C80.0541 52.6889 79.8985 52.6569 79.7536 52.5959C79.6087 52.535 79.4773 52.4464 79.3669 52.3351C79.2566 52.2239 79.1694 52.0922 79.1105 51.9476C79.0515 51.8029 79.0219 51.6482 79.0232 51.4922L79.2081 30.3629C79.2109 30.0297 79.2798 29.7003 79.4111 29.3935C79.5423 29.0868 79.7333 28.8086 79.973 28.575C80.2128 28.3414 80.4967 28.1569 80.8084 28.032C81.1202 27.9072 81.4537 27.8444 81.79 27.8473C82.1262 27.8502 82.4586 27.9187 82.7681 28.0489C83.0776 28.1791 83.3582 28.3684 83.5939 28.6061C83.8295 28.8438 84.0156 29.1252 84.1414 29.4342C84.2673 29.7431 84.3305 30.0737 84.3274 30.4068L84.1426 51.5362C84.1413 51.7032 84.1043 51.868 84.034 52.0198Z" fill="#FFC0CB"/>
<path d="M85.2365 46.379C85.14 46.5875 84.9848 46.7639 84.7896 46.887C84.5943 47.0101 84.3673 47.0746 84.1359 47.0729L79.4866 47.0329C79.1688 47.0298 78.8653 46.9019 78.6425 46.6773C78.4197 46.4527 78.296 46.1498 78.2984 45.8349L78.4502 28.4846C78.4516 28.3286 78.4839 28.1744 78.5454 28.0308C78.6069 27.8873 78.6964 27.7571 78.8086 27.6477C78.9209 27.5384 79.0538 27.4521 79.1998 27.3936C79.3458 27.3352 79.5019 27.3058 79.6593 27.3072L84.3085 27.3471C84.4659 27.3484 84.6215 27.3805 84.7664 27.4414C84.9113 27.5024 85.0427 27.591 85.1531 27.7022C85.2634 27.8135 85.3505 27.9452 85.4095 28.0898C85.4685 28.2344 85.4981 28.3891 85.4968 28.5451L85.345 45.8954C85.3437 46.0624 85.3067 46.2272 85.2365 46.379Z" fill="#2F2E41"/>
<path d="M77.4594 7.87586C75.9936 8.12235 74.3572 8.4042 72.9605 7.73076C71.8612 7.20067 71.1053 6.14198 71.3731 4.89805C71.906 2.42246 74.7664 1.32798 77.0651 1.54885C78.417 1.67391 79.6882 2.24183 80.6779 3.16285C80.7248 3.20692 80.7836 3.23658 80.8472 3.24824C80.9108 3.2599 80.9764 3.25306 81.0361 3.22855C81.0958 3.20404 81.1471 3.1629 81.1837 3.11012C81.2203 3.05734 81.2407 2.99518 81.2425 2.93115C81.2327 2.01765 81.9224 1.25537 82.7397 0.911269C83.763 0.480436 84.952 0.634397 86.0037 0.864951C88.8812 1.50081 91.4945 2.99107 93.495 5.13687C95.4954 7.28267 96.7878 9.98193 97.1997 12.8744C97.4926 14.9107 97.3355 16.9858 96.7394 18.956C96.1815 20.7722 95.1511 22.5976 93.4546 23.5857C91.9258 24.4761 89.7029 24.7054 88.2922 23.4562C87.1622 22.4555 86.6529 20.5849 87.5799 19.2904C87.8531 18.915 88.2236 18.6198 88.6524 18.4362C89.0811 18.2525 89.5519 18.1873 90.0151 18.2473C90.4531 18.3159 90.862 18.5075 91.1934 18.7995C91.5247 19.0915 91.7645 19.4716 91.8844 19.8946C91.9724 20.3008 91.9453 20.7231 91.806 21.115C91.6668 21.5069 91.4208 21.8529 91.0954 22.1149C90.8521 22.288 90.5758 22.4103 90.2833 22.4743C89.9908 22.5383 89.6882 22.5426 89.394 22.4869C89.0997 22.4312 88.82 22.3168 88.5719 22.1506C88.3237 21.9844 88.1123 21.7698 87.9505 21.52C87.7259 21.1628 87.1534 21.4915 87.3794 21.8507C87.6389 22.2529 87.9945 22.5855 88.4147 22.819C88.8348 23.0525 89.3066 23.1798 89.7883 23.1895C90.2683 23.1982 90.7421 23.0803 91.161 22.8478C91.58 22.6154 91.929 22.2767 92.1724 21.8666C92.4334 21.4481 92.5785 20.9689 92.5932 20.4772C92.6079 19.9854 92.4916 19.4985 92.256 19.0655C91.9984 18.6238 91.6315 18.2545 91.1898 17.9925C90.7481 17.7304 90.2463 17.5843 89.7318 17.5678C89.198 17.5637 88.6712 17.6882 88.1969 17.9307C87.7225 18.1732 87.3148 18.5263 87.0088 18.9597C86.5138 19.7096 86.3312 20.6203 86.4993 21.5007C86.6484 22.3961 87.0858 23.2197 87.7463 23.8484C88.5109 24.5342 89.4951 24.9308 90.5257 24.9685C92.7682 25.0952 94.7702 23.8152 96.007 22.0358C97.2905 20.1895 97.8644 17.8726 97.9801 15.6576C98.0979 13.3999 97.7002 11.145 96.8168 9.0607C95.9333 6.9764 94.5868 5.11635 92.8774 3.61903C91.2516 2.20911 89.3449 1.15352 87.2809 0.520721C85.2377 -0.0994021 82.3851 -0.551424 81.0054 1.51701C80.7246 1.93587 80.5769 2.42839 80.5811 2.93117L81.1456 2.69948C79.1493 0.809371 76.0112 0.331768 73.5185 1.4936C72.2666 2.07714 71.1811 3.16225 70.792 4.50018C70.3882 5.88839 70.9721 7.25092 72.1696 8.03822C73.7993 9.10969 75.8204 8.813 77.6352 8.5078C78.054 8.43738 77.8764 7.80573 77.4594 7.87586Z" fill="#2F2E41"/>
<path d="M56.7772 48.157H3.22075C2.36685 48.156 1.54821 47.8195 0.944409 47.2212C0.340613 46.623 0.000974212 45.8119 0 44.9658V13.2361C0.000974212 12.3901 0.340613 11.5789 0.944409 10.9807C1.54821 10.3824 2.36685 10.0459 3.22075 10.0449H56.7772C57.6311 10.0459 58.4497 10.3824 59.0535 10.9807C59.6573 11.5789 59.9969 12.3901 59.9979 13.2361V44.9658C59.9969 45.8119 59.6573 46.623 59.0535 47.2212C58.4497 47.8195 57.6311 48.156 56.7772 48.157ZM3.22075 10.592C2.51323 10.5928 1.83493 10.8716 1.33465 11.3673C0.834359 11.863 0.552941 12.5351 0.552128 13.2361V44.9658C0.552941 45.6668 0.834359 46.3389 1.33465 46.8346C1.83493 47.3303 2.51323 47.6091 3.22075 47.6099H56.7772C57.4847 47.6091 58.163 47.3303 58.6633 46.8346C59.1635 46.3389 59.445 45.6668 59.4458 44.9658V13.2361C59.445 12.5351 59.1635 11.863 58.6633 11.3673C58.163 10.8716 57.4847 10.5928 56.7772 10.592H3.22075Z" fill="#3F3D56"/>
<path d="M10.3984 17.5213C9.94343 17.5213 9.49865 17.3876 9.12033 17.1371C8.74201 16.8866 8.44714 16.5306 8.27302 16.1141C8.0989 15.6976 8.05334 15.2393 8.1421 14.7971C8.23087 14.355 8.44998 13.9488 8.77171 13.63C9.09345 13.3112 9.50336 13.0942 9.94962 13.0062C10.3959 12.9183 10.8584 12.9634 11.2788 13.1359C11.6992 13.3084 12.0585 13.6006 12.3113 13.9755C12.564 14.3503 12.699 14.791 12.699 15.2418C12.6983 15.8462 12.4557 16.4256 12.0244 16.8529C11.5931 17.2802 11.0084 17.5206 10.3984 17.5213ZM10.3984 13.5095C10.0526 13.5095 9.7146 13.6111 9.42707 13.8014C9.13955 13.9918 8.91545 14.2623 8.78312 14.5789C8.65079 14.8954 8.61616 15.2438 8.68362 15.5798C8.75109 15.9158 8.91761 16.2245 9.16212 16.4668C9.40664 16.7091 9.71818 16.8741 10.0573 16.9409C10.3965 17.0078 10.748 16.9734 11.0675 16.8423C11.387 16.7112 11.6601 16.4892 11.8522 16.2043C12.0443 15.9194 12.1468 15.5845 12.1468 15.2418C12.1463 14.7825 11.9619 14.3422 11.6342 14.0174C11.3064 13.6927 10.862 13.51 10.3984 13.5095Z" fill="#3F3D56"/>
<path d="M49.2314 17.5213C48.7764 17.5213 48.3317 17.3876 47.9533 17.1371C47.575 16.8866 47.2801 16.5306 47.106 16.1141C46.9319 15.6976 46.8863 15.2393 46.9751 14.7971C47.0639 14.355 47.283 13.9488 47.6047 13.63C47.9265 13.3112 48.3364 13.0942 48.7826 13.0062C49.2289 12.9183 49.6914 12.9634 50.1118 13.1359C50.5322 13.3084 50.8915 13.6006 51.1443 13.9755C51.3971 14.3503 51.532 14.791 51.532 15.2418C51.5313 15.8462 51.2887 16.4256 50.8574 16.8529C50.4261 17.2802 49.8414 17.5206 49.2314 17.5213ZM49.2314 13.5095C48.8856 13.5095 48.5476 13.6111 48.2601 13.8014C47.9726 13.9918 47.7485 14.2623 47.6161 14.5789C47.4838 14.8954 47.4492 15.2438 47.5166 15.5798C47.5841 15.9158 47.7506 16.2245 47.9951 16.4668C48.2397 16.7091 48.5512 16.8741 48.8903 16.9409C49.2295 17.0078 49.5811 16.9734 49.9005 16.8423C50.22 16.7112 50.4931 16.4892 50.6852 16.2043C50.8773 15.9194 50.9799 15.5845 50.9799 15.2418C50.9793 14.7825 50.7949 14.3422 50.4672 14.0174C50.1394 13.6927 49.695 13.51 49.2314 13.5095Z" fill="#3F3D56"/>
<path d="M15.8276 31.3802H5.88931C5.47457 31.3797 5.07696 31.2162 4.78369 30.9257C4.49042 30.6351 4.32544 30.2411 4.32495 29.8302V23.9948C4.32544 23.5839 4.49042 23.1899 4.78369 22.8994C5.07696 22.6088 5.47457 22.4453 5.88931 22.4448H15.8276C16.2424 22.4453 16.64 22.6088 16.9332 22.8994C17.2265 23.1899 17.3915 23.5839 17.392 23.9948V29.8302C17.3915 30.2411 17.2265 30.6351 16.9332 30.9257C16.64 31.2162 16.2424 31.3797 15.8276 31.3802Z" fill="#E6E6E6"/>
<path d="M34.968 31.3802H25.0297C24.615 31.3797 24.2173 31.2162 23.9241 30.9257C23.6308 30.6351 23.4658 30.2411 23.4653 29.8302V23.9948C23.4658 23.5839 23.6308 23.1899 23.9241 22.8994C24.2173 22.6088 24.615 22.4453 25.0297 22.4448H34.968C35.3827 22.4453 35.7804 22.6088 36.0736 22.8994C36.3669 23.1899 36.5319 23.5839 36.5324 23.9948V29.8302C36.5319 30.2411 36.3669 30.6351 36.0736 30.9257C35.7804 31.2162 35.3827 31.3797 34.968 31.3802Z" fill="#E6E6E6"/>
<path d="M44.1704 22.627C43.8044 22.6273 43.4535 22.7716 43.1948 23.028C42.936 23.2844 42.7904 23.632 42.79 23.9946V29.83C42.7904 30.1926 42.936 30.5402 43.1948 30.7966C43.4535 31.053 43.8044 31.1972 44.1704 31.1976H54.1087C54.4746 31.1972 54.8255 31.053 55.0843 30.7966C55.343 30.5402 55.4886 30.1926 55.489 29.83V23.9946C55.4886 23.632 55.343 23.2844 55.0843 23.028C54.8255 22.7716 54.4746 22.6273 54.1087 22.627H44.1704Z" fill="#E6E6E6"/>
<path d="M15.9197 43.0511H5.98135C5.56661 43.0506 5.169 42.8871 4.87573 42.5966C4.58246 42.306 4.41749 41.912 4.41699 41.5011V35.6657C4.41749 35.2548 4.58246 34.8608 4.87573 34.5703C5.169 34.2797 5.56661 34.1162 5.98135 34.1157H15.9197C16.3344 34.1162 16.732 34.2797 17.0253 34.5703C17.3186 34.8608 17.4835 35.2548 17.484 35.6657V41.5011C17.4835 41.912 17.3186 42.306 17.0253 42.5966C16.732 42.8871 16.3344 43.0506 15.9197 43.0511Z" fill="#E6E6E6"/>
<path d="M35.06 43.0511H25.1217C24.707 43.0506 24.3094 42.8871 24.0161 42.5966C23.7228 42.306 23.5579 41.912 23.5574 41.5011V35.6657C23.5579 35.2548 23.7228 34.8608 24.0161 34.5703C24.3094 34.2797 24.707 34.1162 25.1217 34.1157H35.06C35.4748 34.1162 35.8724 34.2797 36.1657 34.5703C36.4589 34.8608 36.6239 35.2548 36.6244 35.6657V41.5011C36.6239 41.912 36.4589 42.306 36.1657 42.5966C35.8724 42.8871 35.4748 43.0506 35.06 43.0511Z" fill="#E6E6E6"/>
<path d="M54.2007 43.0511H44.2624C43.8476 43.0506 43.45 42.8871 43.1567 42.5966C42.8635 42.306 42.6985 41.912 42.698 41.5011V35.6657C42.6985 35.2548 42.8635 34.8608 43.1567 34.5703C43.45 34.2797 43.8476 34.1162 44.2624 34.1157H54.2007C54.6154 34.1162 55.013 34.2797 55.3063 34.5703C55.5996 34.8608 55.7645 35.2548 55.765 35.6657V41.5011C55.7645 41.912 55.5996 42.306 55.3063 42.5966C55.013 42.8871 54.6154 43.0506 54.2007 43.0511Z" fill="#E6E6E6"/>
<path d="M10.3983 15.88C10.2275 15.8798 10.0638 15.8125 9.94305 15.6929C9.82229 15.5732 9.75436 15.411 9.75415 15.2418V6.12408C9.75415 5.95481 9.82201 5.79247 9.94282 5.67277C10.0636 5.55308 10.2275 5.48584 10.3983 5.48584C10.5691 5.48584 10.733 5.55308 10.8538 5.67277C10.9746 5.79247 11.0424 5.95481 11.0424 6.12408V15.2418C11.0422 15.411 10.9743 15.5732 10.8536 15.6929C10.7328 15.8125 10.5691 15.8798 10.3983 15.88Z" fill="#3F3D56"/>
<path d="M49.2313 15.88C49.0605 15.8798 48.8968 15.8125 48.7761 15.6929C48.6553 15.5732 48.5874 15.411 48.5872 15.2418V6.12408C48.5872 5.95481 48.655 5.79247 48.7758 5.67277C48.8966 5.55308 49.0605 5.48584 49.2313 5.48584C49.4021 5.48584 49.566 5.55308 49.6868 5.67277C49.8076 5.79247 49.8755 5.95481 49.8755 6.12408V15.2418C49.8752 15.411 49.8073 15.5732 49.6866 15.6929C49.5658 15.8125 49.4021 15.8798 49.2313 15.88Z" fill="#3F3D56"/>
<path d="M10.4828 29.2778C10.2118 29.2783 9.94806 29.1914 9.73126 29.0304L9.71783 29.0204L6.88712 26.8748C6.62235 26.6737 6.44906 26.3766 6.40537 26.0489C6.36168 25.7212 6.45117 25.3897 6.65416 25.1273C6.85714 24.865 7.15699 24.6933 7.48775 24.65C7.8185 24.6067 8.15307 24.6954 8.41784 24.8965L10.2513 26.2896L14.584 20.689C14.6845 20.5592 14.8098 20.4502 14.9527 20.3684C15.0957 20.2865 15.2535 20.2333 15.4172 20.2119C15.581 20.1905 15.7473 20.2012 15.9068 20.2435C16.0663 20.2858 16.2159 20.3588 16.3469 20.4583L16.3473 20.4586L16.3204 20.4956L16.348 20.4586C16.6124 20.6599 16.7854 20.9569 16.829 21.2845C16.8726 21.612 16.7833 21.9433 16.5806 22.2057L11.4845 28.7903C11.3666 28.942 11.215 29.0648 11.0415 29.1491C10.8679 29.2334 10.6772 29.2769 10.4839 29.2764L10.4828 29.2778Z" fill="#FB6C85"/>
<path d="M30.1754 40.7661C29.9045 40.7666 29.6407 40.6797 29.4239 40.5186L29.4105 40.5087L26.5797 38.3631C26.315 38.162 26.1417 37.8649 26.098 37.5372C26.0543 37.2095 26.1438 36.878 26.3468 36.6156C26.5498 36.3533 26.8496 36.1816 27.1804 36.1383C27.5111 36.095 27.8457 36.1837 28.1105 36.3848L29.944 37.7779L34.2766 32.1773C34.3771 32.0475 34.5024 31.9385 34.6454 31.8566C34.7883 31.7748 34.9462 31.7216 35.1099 31.7002C35.2736 31.6788 35.4399 31.6895 35.5995 31.7318C35.759 31.774 35.9085 31.847 36.0396 31.9466L36.0399 31.9469L36.013 31.9839L36.0407 31.9469C36.3051 32.1482 36.478 32.4452 36.5216 32.7728C36.5652 33.1003 36.4759 33.4316 36.2733 33.694L31.1771 40.2786C31.0592 40.4303 30.9076 40.5531 30.7341 40.6374C30.5606 40.7217 30.3698 40.7652 30.1765 40.7647L30.1754 40.7661Z" fill="#FB6C85"/>
<path d="M48.7638 29.2778C48.4928 29.2783 48.2291 29.1914 48.0123 29.0304L47.9988 29.0204L45.1681 26.8748C44.9034 26.6737 44.7301 26.3766 44.6864 26.0489C44.6427 25.7212 44.7322 25.3897 44.9352 25.1273C45.1382 24.865 45.438 24.6933 45.7688 24.65C46.0995 24.6067 46.4341 24.6954 46.6988 24.8965L48.5324 26.2896L52.865 20.689C52.9655 20.5592 53.0908 20.4502 53.2337 20.3684C53.3767 20.2865 53.5345 20.2333 53.6983 20.2119C53.862 20.1905 54.0283 20.2012 54.1878 20.2435C54.3474 20.2858 54.4969 20.3588 54.6279 20.4583L54.6283 20.4586L54.6014 20.4956L54.629 20.4586C54.8934 20.6599 55.0664 20.9569 55.11 21.2845C55.1536 21.612 55.0643 21.9433 54.8616 22.2057L49.7655 28.7903C49.6476 28.942 49.496 29.0648 49.3225 29.1491C49.1489 29.2334 48.9582 29.2769 48.7649 29.2764L48.7638 29.2778Z" fill="#FB6C85"/>
</g>
<defs>
<clipPath id="clip0_677_11881">
<rect width="98" height="71" fill="white"/>
</clipPath>
</defs>
</svg>
