<svg width="104" height="85" viewBox="0 0 104 85" fill="none" xmlns="http://www.w3.org/2000/svg">
<g clip-path="url(#clip0_677_11913)">
<path d="M77.3834 66.6199H45.1374C44.6226 66.6193 44.129 66.4151 43.765 66.052C43.4009 65.689 43.1961 65.1968 43.1956 64.6834V41.562C43.1961 41.0486 43.4009 40.5564 43.7649 40.1933C44.129 39.8303 44.6226 39.6261 45.1374 39.6255H77.3834C77.8982 39.6261 78.3918 39.8303 78.7558 40.1933C79.1198 40.5564 79.3246 41.0486 79.3252 41.562V64.6834C79.3246 65.1968 79.1198 65.689 78.7558 66.052C78.3918 66.4151 77.8982 66.6193 77.3834 66.6199Z" fill="#E6E6E6"/>
<path d="M45.7335 65.0759H76.7873C77.037 65.0759 77.2765 64.977 77.4531 64.8009C77.6296 64.6248 77.7288 64.386 77.7288 64.137V42.1079C77.7288 41.8589 77.6296 41.62 77.4531 41.444C77.2765 41.2679 77.037 41.1689 76.7873 41.1689H45.7335C45.4838 41.1689 45.2443 41.2679 45.0677 41.444C44.8912 41.62 44.792 41.8589 44.792 42.1079V64.137C44.792 64.386 44.8912 64.6248 45.0677 64.8009C45.2443 64.977 45.4838 65.0759 45.7335 65.0759Z" fill="white"/>
<path d="M34.1878 35.5793H1.94182C1.42699 35.5787 0.933423 35.3745 0.569388 35.0115C0.205352 34.6484 0.000581544 34.1562 0 33.6428V10.5215C0.000581233 10.0081 0.205352 9.51585 0.569388 9.1528C0.933423 8.78976 1.42699 8.58554 1.94182 8.58496H34.1878C34.7026 8.58554 35.1962 8.78976 35.5602 9.1528C35.9242 9.51585 36.129 10.0081 36.1296 10.5215V33.6428C36.129 34.1562 35.9242 34.6484 35.5602 35.0115C35.1962 35.3745 34.7026 35.5787 34.1878 35.5793Z" fill="#E6E6E6"/>
<path d="M2.53792 34.0354H33.5918C33.8415 34.0354 34.081 33.9364 34.2575 33.7604C34.4341 33.5843 34.5333 33.3455 34.5333 33.0964V11.0674C34.5333 10.8183 34.4341 10.5795 34.2575 10.4034C34.081 10.2273 33.8415 10.1284 33.5918 10.1284H2.53792C2.28822 10.1284 2.04875 10.2273 1.87219 10.4034C1.69563 10.5795 1.59644 10.8183 1.59644 11.0674V33.0964C1.59644 33.3455 1.69563 33.5843 1.87219 33.7604C2.04875 33.9364 2.28822 34.0354 2.53792 34.0354Z" fill="white"/>
<path d="M73.0858 48.0142H53.2497C53.1567 48.0142 53.0645 48.0324 52.9786 48.0679C52.8926 48.1034 52.8145 48.1555 52.7488 48.2211C52.683 48.2867 52.6308 48.3646 52.5952 48.4503C52.5596 48.536 52.5413 48.6279 52.5413 48.7207C52.5413 48.8135 52.5596 48.9053 52.5952 48.991C52.6308 49.0768 52.683 49.1546 52.7488 49.2202C52.8145 49.2859 52.8926 49.3379 52.9786 49.3734C53.0645 49.4089 53.1567 49.4272 53.2497 49.4272H73.0858C73.2736 49.4272 73.4538 49.3527 73.5867 49.2202C73.7195 49.0878 73.7942 48.908 73.7942 48.7207C73.7942 48.5333 73.7195 48.3536 73.5867 48.2211C73.4538 48.0886 73.2736 48.0142 73.0858 48.0142Z" fill="#E6E6E6"/>
<path d="M53.2497 52.3618C53.1567 52.3618 53.0645 52.3801 52.9786 52.4156C52.8926 52.4511 52.8145 52.5031 52.7488 52.5687C52.683 52.6344 52.6308 52.7122 52.5952 52.798C52.5596 52.8837 52.5413 52.9755 52.5413 53.0683C52.5413 53.1611 52.5596 53.253 52.5952 53.3387C52.6308 53.4244 52.683 53.5023 52.7488 53.5679C52.8145 53.6335 52.8926 53.6855 52.9786 53.7211C53.0645 53.7566 53.1567 53.7748 53.2497 53.7748H73.0858C73.2736 53.7748 73.4538 53.7004 73.5867 53.5679C73.7195 53.4354 73.7942 53.2557 73.7942 53.0683C73.7942 52.8809 73.7195 52.7012 73.5867 52.5687C73.4538 52.4363 73.2736 52.3618 73.0858 52.3618H53.2497Z" fill="#E6E6E6"/>
<path d="M53.2497 56.7095C53.0618 56.7095 52.8816 56.7839 52.7488 56.9164C52.6159 57.0489 52.5413 57.2286 52.5413 57.416C52.5413 57.6034 52.6159 57.7831 52.7488 57.9156C52.8816 58.0481 53.0618 58.1225 53.2497 58.1225H73.0858C73.2736 58.1225 73.4538 58.0481 73.5867 57.9156C73.7195 57.7831 73.7942 57.6034 73.7942 57.416C73.7942 57.2286 73.7195 57.0489 73.5867 56.9164C73.4538 56.7839 73.2736 56.7095 73.0858 56.7095H53.2497Z" fill="#E6E6E6"/>
<path d="M49.4896 49.6444C49.9711 49.6444 50.3615 49.2551 50.3615 48.7748C50.3615 48.2946 49.9711 47.9053 49.4896 47.9053C49.008 47.9053 48.6177 48.2946 48.6177 48.7748C48.6177 49.2551 49.008 49.6444 49.4896 49.6444Z" fill="white"/>
<path d="M49.4896 53.992C49.9711 53.992 50.3615 53.6027 50.3615 53.1225C50.3615 52.6422 49.9711 52.2529 49.4896 52.2529C49.008 52.2529 48.6177 52.6422 48.6177 53.1225C48.6177 53.6027 49.008 53.992 49.4896 53.992Z" fill="#E6E6E6"/>
<path d="M49.4896 58.3397C49.9711 58.3397 50.3615 57.9504 50.3615 57.4701C50.3615 56.9899 49.9711 56.6006 49.4896 56.6006C49.008 56.6006 48.6177 56.9899 48.6177 57.4701C48.6177 57.9504 49.008 58.3397 49.4896 58.3397Z" fill="#E6E6E6"/>
<path d="M65.184 48.7207C65.184 48.8135 65.1657 48.9053 65.1301 48.991C65.0945 49.0768 65.0423 49.1546 64.9765 49.2202C64.9107 49.2859 64.8326 49.3379 64.7467 49.3734C64.6607 49.4089 64.5686 49.4272 64.4756 49.4272H53.2752C53.1002 49.4297 52.9302 49.3692 52.7964 49.2566C52.6627 49.144 52.5742 48.987 52.5474 48.8146C52.5342 48.7148 52.5424 48.6133 52.5717 48.517C52.6009 48.4206 52.6504 48.3316 52.7169 48.2558C52.7833 48.1801 52.8652 48.1193 52.9571 48.0777C53.049 48.036 53.1487 48.0143 53.2497 48.0142H64.4756C64.6635 48.0142 64.8436 48.0886 64.9765 48.2211C65.1094 48.3536 65.184 48.5333 65.184 48.7207Z" fill="white"/>
<path d="M61.2605 36.6555C62.8255 36.6555 64.0942 35.3902 64.0942 33.8295C64.0942 32.2687 62.8255 31.0034 61.2605 31.0034C59.6955 31.0034 58.4268 32.2687 58.4268 33.8295C58.4268 35.3902 59.6955 36.6555 61.2605 36.6555Z" fill="#E6E6E6"/>
<path d="M62.6589 34.056C62.7842 33.2856 62.2597 32.5598 61.4872 32.4348C60.7148 32.3098 59.9871 32.833 59.8617 33.6033C59.7364 34.3736 60.2609 35.0994 61.0333 35.2244C61.8057 35.3494 62.5335 34.8263 62.6589 34.056Z" fill="white"/>
<path d="M4.83342 21.4106C4.64722 21.4106 4.46864 21.4844 4.33698 21.6157C4.20532 21.747 4.13135 21.9251 4.13135 22.1108C4.13135 22.2965 4.20532 22.4746 4.33698 22.6059C4.46864 22.7372 4.64722 22.811 4.83342 22.811H31.2961C31.4823 22.811 31.6609 22.7372 31.7925 22.6059C31.9242 22.4746 31.9982 22.2965 31.9982 22.1108C31.9982 21.9251 31.9242 21.747 31.7925 21.6157C31.6609 21.4844 31.4823 21.4106 31.2961 21.4106H4.83342Z" fill="#E6E6E6"/>
<path d="M4.83342 25.7192C4.64722 25.7192 4.46864 25.793 4.33698 25.9243C4.20532 26.0556 4.13135 26.2337 4.13135 26.4194C4.13135 26.6051 4.20532 26.7832 4.33698 26.9145C4.46864 27.0458 4.64722 27.1196 4.83342 27.1196H31.2961C31.4823 27.1196 31.6609 27.0458 31.7925 26.9145C31.9242 26.7832 31.9982 26.6051 31.9982 26.4194C31.9982 26.2337 31.9242 26.0556 31.7925 25.9243C31.6609 25.793 31.4823 25.7192 31.2961 25.7192H4.83342Z" fill="#E6E6E6"/>
<path d="M16.6606 30.2437C16.4744 30.2437 16.2958 30.3174 16.1641 30.4487C16.0325 30.58 15.9585 30.7581 15.9585 30.9438C15.9585 31.1295 16.0325 31.3076 16.1641 31.4389C16.2958 31.5702 16.4744 31.644 16.6606 31.644H19.4689C19.6551 31.644 19.8336 31.5702 19.9653 31.4389C20.097 31.3076 20.1709 31.1295 20.1709 30.9438C20.1709 30.7581 20.097 30.58 19.9653 30.4487C19.8336 30.3174 19.6551 30.2437 19.4689 30.2437H16.6606Z" fill="white"/>
<path d="M14.3017 12.52C14.2444 12.5201 14.1895 12.5428 14.149 12.5832C14.1085 12.6236 14.0858 12.6783 14.0857 12.7355V18.2043C14.0858 18.2614 14.1085 18.3162 14.149 18.3566C14.1895 18.397 14.2444 18.4197 14.3017 18.4197H21.8279C21.8852 18.4197 21.9401 18.397 21.9806 18.3566C22.0211 18.3162 22.0438 18.2614 22.0439 18.2043V12.7355C22.0438 12.6783 22.0211 12.6236 21.9806 12.5832C21.9401 12.5428 21.8852 12.5201 21.8279 12.52L14.3017 12.52Z" fill="white"/>
<path d="M18.0648 16.05C18.721 16.05 19.2529 15.5195 19.2529 14.8651C19.2529 14.2107 18.721 13.6802 18.0648 13.6802C17.4086 13.6802 16.8767 14.2107 16.8767 14.8651C16.8767 15.5195 17.4086 16.05 18.0648 16.05Z" fill="white"/>
<path d="M20.0091 17.8812C20.0095 18.0684 19.9651 18.2531 19.8795 18.4198H16.2503C16.1578 18.2391 16.1134 18.0378 16.1213 17.8351C16.1291 17.6325 16.1891 17.4352 16.2953 17.2622C16.4015 17.0893 16.5505 16.9464 16.7279 16.8473C16.9054 16.7482 17.1054 16.6962 17.3088 16.6963H18.8209C19.1359 16.6961 19.438 16.8207 19.6608 17.0427C19.8836 17.2646 20.0089 17.5658 20.0091 17.8798V17.8812Z" fill="white"/>
<path d="M18.0648 16.05C18.721 16.05 19.2529 15.5195 19.2529 14.8651C19.2529 14.2107 18.721 13.6802 18.0648 13.6802C17.4086 13.6802 16.8767 14.2107 16.8767 14.8651C16.8767 15.5195 17.4086 16.05 18.0648 16.05Z" fill="white"/>
<path d="M20.0091 17.8812C20.0095 18.0684 19.9651 18.2531 19.8795 18.4198H16.2503C16.1578 18.2391 16.1134 18.0378 16.1213 17.8351C16.1291 17.6325 16.1891 17.4352 16.2953 17.2622C16.4015 17.0893 16.5505 16.9464 16.7279 16.8473C16.9054 16.7482 17.1054 16.6962 17.3088 16.6963H18.8209C19.1359 16.6961 19.438 16.8207 19.6608 17.0427C19.8836 17.2646 20.0089 17.5658 20.0091 17.8798V17.8812Z" fill="white"/>
<path d="M18.0649 5.60134C19.6158 5.60134 20.8732 4.34743 20.8732 2.80067C20.8732 1.2539 19.6158 0 18.0649 0C16.5139 0 15.2566 1.2539 15.2566 2.80067C15.2566 4.34743 16.5139 5.60134 18.0649 5.60134Z" fill="#E6E6E6"/>
<path d="M18.0648 4.20106C18.8403 4.20106 19.4689 3.57411 19.4689 2.80072C19.4689 2.02734 18.8403 1.40039 18.0648 1.40039C17.2893 1.40039 16.6606 2.02734 16.6606 2.80072C16.6606 3.57411 17.2893 4.20106 18.0648 4.20106Z" fill="white"/>
<path d="M88.0431 83.4758L86.6977 83.4757L86.0579 78.3003L88.0436 78.3005L88.0431 83.4758Z" fill="#FFB8B8"/>
<path d="M85.7367 83.0923H88.3315V84.7216H84.103C84.103 84.5076 84.1453 84.2957 84.2274 84.0981C84.3095 83.9004 84.4298 83.7208 84.5815 83.5695C84.7332 83.4182 84.9133 83.2982 85.1115 83.2163C85.3098 83.1344 85.5222 83.0923 85.7367 83.0923Z" fill="#2F2E41"/>
<path d="M95.2951 83.4758L93.9496 83.4757L93.3098 78.3003L95.2955 78.3005L95.2951 83.4758Z" fill="#FFB8B8"/>
<path d="M92.9887 83.0923H95.5834V84.7216H91.355C91.355 84.5076 91.3972 84.2957 91.4793 84.0981C91.5614 83.9004 91.6818 83.7208 91.8335 83.5695C91.9852 83.4182 92.1653 83.2982 92.3635 83.2163C92.5617 83.1344 92.7741 83.0923 92.9887 83.0923Z" fill="#2F2E41"/>
<path d="M91.3548 46.6842C92.9512 46.6842 94.2453 45.3936 94.2453 43.8016C94.2453 42.2096 92.9512 40.9189 91.3548 40.9189C89.7585 40.9189 88.4644 42.2096 88.4644 43.8016C88.4644 45.3936 89.7585 46.6842 91.3548 46.6842Z" fill="#FFB8B8"/>
<path d="M81.4713 62.6016C81.4915 62.4419 81.5465 62.2887 81.6325 62.1525C81.7186 62.0164 81.8334 61.9008 81.9691 61.8137C82.1048 61.7267 82.258 61.6703 82.4178 61.6487C82.5777 61.6271 82.7404 61.6407 82.8944 61.6885L84.5098 59.7573L85.926 60.4501L83.6063 63.1454C83.5086 63.3981 83.3213 63.6063 83.0799 63.7305C82.8385 63.8547 82.5598 63.8862 82.2966 63.8192C82.0335 63.7522 81.8041 63.5912 81.652 63.3668C81.4999 63.1424 81.4356 62.8701 81.4713 62.6016Z" fill="#FFB8B8"/>
<path d="M95.3741 64.5545C95.3052 64.409 95.2692 64.2502 95.2686 64.0893C95.2679 63.9285 95.3027 63.7694 95.3703 63.6233C95.438 63.4773 95.537 63.3478 95.6602 63.244C95.7835 63.1402 95.9281 63.0646 96.0838 63.0226L96.4081 60.5286L97.976 60.3555L97.4684 63.8711C97.5218 64.1367 97.4757 64.4126 97.3388 64.6466C97.2019 64.8806 96.9837 65.0563 96.7256 65.1405C96.4674 65.2248 96.1873 65.2117 95.9382 65.1037C95.6891 64.9957 95.4884 64.8003 95.3741 64.5545Z" fill="#FFB8B8"/>
<path d="M93.7703 49.2465C93.9241 49.0497 94.1271 48.8968 94.359 48.8032C94.5909 48.7097 94.8434 48.6788 95.0911 48.7136C95.3388 48.7485 95.5729 48.848 95.7698 49.0019C95.9666 49.1558 96.1193 49.3588 96.2123 49.5904L98.5815 55.487C98.8236 56.0895 98.9008 56.7455 98.8052 57.3876L98.0335 62.5703C98.0235 62.6372 97.9992 62.7011 97.9622 62.7577C97.9252 62.8144 97.8763 62.8623 97.819 62.8984C97.7617 62.9345 97.6972 62.9578 97.63 62.9667C97.5628 62.9756 97.4945 62.97 97.4297 62.9501L96.413 62.6387C96.3077 62.6065 96.2171 62.5385 96.1569 62.4465C96.0967 62.3545 96.0708 62.2444 96.0836 62.1353C96.4425 59.0841 95.9682 55.9928 94.7109 53.1882L93.594 50.6968C93.4887 50.4618 93.4495 50.2027 93.4806 49.9472C93.5116 49.6918 93.6118 49.4495 93.7703 49.2465Z" fill="white"/>
<path d="M92.0585 46.6845C92.4936 46.6939 92.9257 46.6113 93.3264 46.4423C93.7272 46.2733 94.0875 46.0216 94.3838 45.7037C94.6801 45.3859 94.9056 45.0092 95.0454 44.5983C95.1853 44.1873 95.2364 43.7515 95.1954 43.3195C95.1543 42.8875 95.0221 42.4691 94.8073 42.0916C94.5925 41.7142 94.3001 41.3864 93.9493 41.1297C93.5984 40.8731 93.1971 40.6933 92.7716 40.6024C92.3461 40.5114 91.9062 40.5113 91.4807 40.6019C90.845 40.217 90.106 39.958 89.3653 40.0239C88.6246 40.0898 87.8921 40.5283 87.6151 41.2166C87.3381 41.9049 87.6357 42.8121 88.3244 43.0918C88.7659 43.2711 89.2645 43.1842 89.7357 43.1118C90.2069 43.0395 90.721 42.9923 91.1311 43.2348C91.5412 43.4773 91.7255 44.1274 91.3582 44.4306C91.1635 44.5977 91.0245 44.8199 90.9597 45.0678C90.8948 45.3156 90.9072 45.5773 90.9953 45.8179C91.1798 46.294 91.6836 46.6764 92.0585 46.6845Z" fill="#2F2E41"/>
<path d="M95.6449 62.4874L96.1577 81.8927C96.1594 81.9574 96.1477 82.0218 96.1233 82.0817C96.0989 82.1417 96.0623 82.1959 96.0158 82.2411C95.9694 82.2863 95.9141 82.3214 95.8534 82.3443C95.7927 82.3672 95.7279 82.3773 95.6631 82.374L93.9741 82.288C93.8663 82.2825 93.7637 82.2403 93.6834 82.1683C93.6031 82.0964 93.5501 81.9991 93.5331 81.8929L91.5241 69.289C91.5155 69.235 91.4883 69.1858 91.4472 69.1497C91.4062 69.1136 91.3537 69.0929 91.299 69.0912C91.2443 69.0895 91.1906 69.1069 91.1474 69.1404C91.1041 69.1738 91.0739 69.2213 91.062 69.2746L88.3425 81.4099C88.328 81.4748 88.2998 81.5358 88.2599 81.589C88.2199 81.6422 88.1691 81.6863 88.1107 81.7185C88.0524 81.7506 87.9879 81.77 87.9214 81.7754C87.855 81.7809 87.7882 81.7721 87.7254 81.7499L86.0491 81.6478C85.9521 81.6134 85.8691 81.5482 85.8128 81.4623C85.7565 81.3764 85.73 81.2745 85.7373 81.1721L87.2006 62.3037L95.6449 62.4874Z" fill="#2F2E41"/>
<path d="M96.4676 53.2705C96.7504 50.3299 94.5824 47.67 91.6276 47.4608C90.3546 47.3706 88.3781 47.3384 87.7265 49.0026C85.7638 54.0158 89.1997 53.8939 88.0159 58.2373C86.8321 62.5807 85.7866 62.8297 87.4109 63.1433C89.0351 63.4569 96.3393 65.3084 96.0394 62.2513C95.855 60.3722 96.1856 56.2039 96.4676 53.2705Z" fill="white"/>
<path d="M88.0742 48.4926C88.3075 48.4025 88.5605 48.3755 88.8076 48.4141C89.0548 48.4527 89.2873 48.5556 89.4818 48.7125C89.6763 48.8694 89.8259 49.0746 89.9154 49.3076C90.005 49.5405 90.0313 49.7929 89.9918 50.0393L89.0692 55.7892C88.9115 56.7724 88.4946 57.6962 87.8612 58.4659L84.8649 62.1072C84.8219 62.1594 84.7681 62.2018 84.7072 62.2314C84.6463 62.261 84.5796 62.2771 84.5118 62.2787C84.4441 62.2802 84.3768 62.2672 84.3145 62.2404C84.2523 62.2136 84.1966 62.1737 84.1512 62.1235L83.4395 61.3353C83.3658 61.2536 83.3232 61.1488 83.3189 61.0391C83.3147 60.9293 83.3492 60.8216 83.4165 60.7346L83.6261 60.4633C85.3691 58.2074 86.4688 55.5238 86.8088 52.6961L87.1756 49.6463C87.2063 49.3908 87.3062 49.1484 87.4645 48.9452C87.6228 48.742 87.8336 48.5855 88.0742 48.4926Z" fill="white"/>
<path d="M103.882 84.9999H73.5193C73.4881 84.9999 73.4582 84.9875 73.4361 84.9655C73.414 84.9435 73.4016 84.9136 73.4016 84.8825C73.4016 84.8514 73.414 84.8215 73.4361 84.7995C73.4582 84.7775 73.4881 84.7651 73.5193 84.7651H103.882C103.913 84.7651 103.943 84.7775 103.965 84.7995C103.988 84.8215 104 84.8514 104 84.8825C104 84.9136 103.988 84.9435 103.965 84.9655C103.943 84.9875 103.913 84.9999 103.882 84.9999Z" fill="#CCCCCC"/>
</g>
<defs>
<clipPath id="clip0_677_11913">
<rect width="104" height="85" fill="white"/>
</clipPath>
</defs>
</svg>
