<svg xmlns="http://www.w3.org/2000/svg" xmlns:xlink="http://www.w3.org/1999/xlink" width="500" zoomAndPan="magnify" viewBox="0 0 375 374.999991" height="500" preserveAspectRatio="xMidYMid meet" version="1.0"><defs><clipPath id="cf09543232"><path d="M 68 30.582031 L 344 30.582031 L 344 344.082031 L 68 344.082031 Z M 68 30.582031 " clip-rule="nonzero"/></clipPath></defs><path fill="#36344e" d="M 97.6875 134.542969 C 97.308594 133.8125 96.871094 133.058594 96.792969 132.875 C 95.601562 130.019531 94.839844 126.949219 94.488281 123.871094 C 93.535156 115.457031 95.335938 107.664062 98.8125 99.957031 C 99.859375 97.632812 101 95.351562 102.101562 93.050781 C 102.230469 92.777344 102.8125 91.082031 103.214844 91.066406 C 103.507812 91.054688 103.636719 93.554688 103.65625 93.753906 C 103.960938 96.882812 104.355469 100.023438 104.890625 103.117188 C 106.378906 111.734375 107.625 120.632812 105.535156 129.304688 C 104.824219 132.253906 103.480469 136.210938 100.539062 137.851562 C 98.269531 153.605469 90.828125 167.730469 85.539062 182.660156 C 86.269531 181.355469 87.035156 180.070312 87.839844 178.804688 C 94.949219 167.648438 104.675781 159.359375 116.660156 153.769531 C 119.25 152.558594 121.867188 151.417969 124.519531 150.347656 C 124.820312 150.222656 126.710938 149.222656 126.972656 149.542969 C 127.359375 150.007812 125.78125 152.609375 125.570312 153.046875 C 123.777344 156.808594 121.851562 160.503906 120.046875 164.261719 C 114.253906 176.308594 104.234375 185.335938 92.761719 191.996094 C 89.886719 193.664062 85.148438 196.878906 81.417969 197.042969 C 78.511719 210.960938 78.785156 224.96875 81.371094 238.828125 C 81.503906 236.929688 81.679688 235.035156 81.890625 233.148438 C 82.773438 225.191406 84.289062 214.746094 89.566406 207.96875 C 89.171875 207.558594 88.84375 207.074219 88.605469 206.519531 C 87.550781 204.050781 88.730469 201.171875 91.238281 200.101562 C 93.746094 199.03125 96.636719 200.171875 97.691406 202.640625 C 98.746094 205.113281 97.570312 207.988281 95.0625 209.058594 C 94.226562 209.417969 93.347656 209.527344 92.511719 209.425781 C 87.230469 215.691406 85.953125 225.839844 85.109375 233.464844 C 84.992188 234.488281 84.890625 235.515625 84.800781 236.539062 C 87.148438 226.671875 91.304688 216.941406 97.949219 209.148438 C 98.855469 208.085938 103.800781 201.550781 105.746094 202.171875 C 106.25 202.332031 105.539062 204.976562 105.484375 205.347656 C 104.96875 208.839844 104.828125 212.398438 104.734375 215.917969 C 104.417969 228.085938 101.164062 238.355469 93.457031 248.191406 C 91.234375 251.03125 87.773438 252.871094 85.535156 255.578125 C 87.5 262.308594 89.625 268.988281 91.625 275.703125 C 91.949219 274.742188 92.28125 273.789062 92.621094 272.835938 C 94.65625 267.113281 97.375 261.746094 101.140625 256.9375 C 101.234375 256.820312 101.335938 256.722656 101.449219 256.636719 C 101.371094 256.496094 101.300781 256.351562 101.234375 256.199219 C 100.179688 253.730469 101.359375 250.851562 103.867188 249.78125 C 106.375 248.710938 109.265625 249.851562 110.320312 252.320312 C 111.378906 254.792969 110.199219 257.671875 107.691406 258.742188 C 106.390625 259.296875 104.988281 259.257812 103.789062 258.746094 C 103.761719 258.792969 103.730469 258.839844 103.691406 258.886719 C 100.144531 263.414062 97.59375 268.480469 95.671875 273.871094 C 95.003906 275.753906 94.359375 277.644531 93.75 279.542969 C 93.660156 279.824219 93.707031 280.265625 93.699219 280.667969 C 93.6875 281.222656 93.628906 281.742188 93.507812 282.101562 L 93.492188 282.152344 C 95.292969 288.601562 96.890625 295.113281 98.027344 301.757812 C 98.738281 305.921875 95.535156 306.421875 94.835938 302.328125 C 93.832031 296.460938 92.46875 290.707031 90.917969 285.003906 C 90.03125 284.257812 89.046875 283.515625 88.957031 283.453125 C 84.789062 280.417969 79.882812 278.105469 75.097656 276.195312 C 63.851562 271.695312 55.980469 265.234375 52.304688 253.457031 C 51.742188 251.664062 49.214844 245.042969 50.539062 243.132812 C 50.632812 243 52.933594 244.886719 53.105469 245.007812 C 56.058594 247.164062 58.972656 249.355469 61.839844 251.621094 C 68.40625 256.808594 74.648438 262.222656 80.878906 267.785156 C 83.382812 270.019531 85.796875 272.027344 87.84375 274.351562 C 85.476562 266.515625 82.972656 258.714844 80.808594 250.800781 C 78.445312 242.167969 76.886719 233.453125 76.328125 224.710938 C 75.386719 224.492188 73.746094 224.351562 73.140625 224.144531 C 70.265625 223.164062 67.53125 221.832031 64.941406 220.269531 C 53.933594 213.640625 46.359375 202.46875 42.628906 190.382812 C 41.410156 186.449219 40.367188 182.417969 39.757812 178.335938 C 39.671875 177.78125 39.050781 175.105469 39.867188 174.71875 C 40.273438 174.527344 41.902344 177.257812 42.113281 177.535156 C 44.410156 180.546875 47.234375 183.050781 49.894531 185.734375 C 58.25 194.175781 66.722656 203.113281 72.980469 213.328125 C 72.523438 211.226562 72.054688 209.128906 71.535156 207.046875 C 69.175781 197.554688 66.46875 188.476562 60.832031 180.402344 C 60.8125 180.375 60.796875 180.347656 60.78125 180.320312 C 58.425781 180.996094 55.890625 179.851562 54.917969 177.574219 C 53.863281 175.101562 55.042969 172.222656 57.550781 171.152344 C 60.054688 170.085938 62.949219 171.222656 64.003906 173.695312 C 64.699219 175.324219 64.425781 177.128906 63.4375 178.476562 C 63.460938 178.503906 63.480469 178.53125 63.5 178.558594 C 69.359375 186.957031 72.222656 196.378906 74.679688 206.25 C 75.226562 208.449219 75.71875 210.664062 76.199219 212.878906 C 76.535156 205.195312 77.710938 197.507812 79.859375 189.855469 C 81.539062 183.863281 83.765625 178.0625 86.082031 172.304688 C 86.042969 171.890625 86.054688 170.890625 85.929688 170.476562 C 85.527344 169.136719 85.042969 167.804688 84.46875 166.523438 C 82.839844 162.878906 80.679688 159.492188 78.507812 156.144531 C 71.402344 145.183594 66.386719 135.234375 65.765625 121.832031 C 65.625 118.808594 65.625 115.742188 66.027344 112.730469 C 66.074219 112.367188 66.1875 110.03125 66.636719 109.839844 C 66.832031 109.753906 68.605469 112.980469 68.738281 113.1875 C 71.035156 116.742188 73.570312 120.152344 76.046875 123.585938 C 81.761719 131.5 83.996094 140.269531 86.195312 149.636719 C 86.816406 152.28125 87.421875 154.734375 87.921875 157.117188 C 88.191406 154.652344 88.382812 152.183594 88.449219 149.707031 C 88.71875 139.433594 87.917969 129.234375 85.015625 119.394531 C 83.144531 119.359375 81.382812 118.265625 80.609375 116.453125 C 79.554688 113.980469 80.734375 111.105469 83.242188 110.035156 C 85.75 108.964844 88.640625 110.101562 89.695312 112.574219 C 90.589844 114.675781 89.875 117.066406 88.101562 118.394531 C 91.117188 128.578125 91.960938 139.128906 91.683594 149.757812 C 91.585938 153.402344 91.226562 157.03125 90.753906 160.648438 C 94.007812 152.230469 96.789062 143.679688 97.6875 134.542969 Z M 83.402344 243.992188 L 83.398438 243.992188 C 83.375 243.984375 83.347656 243.972656 83.320312 243.964844 C 83.347656 243.972656 83.375 243.980469 83.402344 243.992188 Z M 83.402344 243.992188 " fill-opacity="1" fill-rule="evenodd"/><g clip-path="url(#cf09543232)"><path fill="#36344e" d="M 122.863281 293.105469 L 69.890625 293.105469 C 78.300781 302.734375 87.96875 310.941406 98.894531 317.722656 C 114.328125 327.699219 130.800781 334.652344 148.339844 338.582031 C 165.269531 342.515625 182.496094 344.480469 200.035156 344.480469 C 218.773438 344.480469 239.039062 341.152344 260.800781 334.503906 C 284.074219 327.246094 299.804688 321.046875 307.964844 315.910156 L 311.601562 311.375 L 311.601562 222.035156 C 311.601562 209.335938 313.554688 200.113281 317.488281 194.371094 C 321.109375 188.625 329.742188 185.753906 343.34375 185.753906 L 343.34375 177.589844 L 228.144531 177.589844 L 228.144531 185.753906 C 239.640625 185.753906 248.550781 187.113281 254.914062 189.835938 C 261.257812 192.859375 265.039062 197.089844 266.25 202.535156 C 267.445312 207.671875 268.0625 216.289062 268.0625 228.382812 L 268.0625 301.851562 C 268.0625 304.875 265.039062 308.5 258.992188 312.734375 C 253.242188 316.664062 245.386719 319.839844 235.402344 322.257812 C 234.191406 322.558594 232.238281 323.011719 229.515625 323.617188 C 227.386719 324.523438 225.578125 325.128906 224.066406 325.433594 C 219.230469 326.339844 212.269531 326.792969 203.203125 326.792969 C 187.484375 326.792969 173.722656 324.375 161.945312 319.535156 C 149.238281 314.699219 138.199219 307.898438 128.832031 299.128906 C 126.769531 297.203125 124.769531 295.195312 122.863281 293.105469 Z M 68.503906 89.582031 L 117.113281 89.582031 C 118.957031 87.054688 120.910156 84.644531 122.941406 82.355469 C 131.710938 72.378906 143.191406 64.367188 157.410156 58.320312 C 171.914062 52.273438 185.519531 49.25 198.226562 49.25 C 246.597656 49.25 279.539062 75.25 297.082031 127.253906 L 307.964844 127.253906 L 304.339844 30.65625 L 293.902344 30.65625 C 290.578125 39.726562 283.777344 45.019531 273.492188 46.53125 L 268.0625 45.621094 C 268.0625 45.621094 267.007812 45.320312 264.878906 44.714844 C 263.367188 44.414062 261.855469 44.109375 260.34375 43.808594 C 256.425781 42.902344 252.1875 41.691406 247.652344 40.179688 C 244.332031 38.972656 239.796875 37.609375 234.046875 36.097656 L 233.136719 35.644531 L 231.324219 35.644531 L 226.332031 34.285156 C 223.609375 33.679688 221.957031 33.378906 221.339844 33.378906 C 212.269531 31.5625 202.761719 30.65625 192.777344 30.65625 C 188.542969 30.65625 182.496094 30.960938 174.636719 31.5625 C 169.804688 32.167969 160.433594 33.984375 146.515625 37.007812 C 132.910156 40.332031 118.863281 46.832031 104.34375 56.507812 C 89.90625 66.074219 77.953125 77.101562 68.503906 89.582031 Z M 68.503906 89.582031 " fill-opacity="1" fill-rule="nonzero"/></g></svg>