<svg xmlns="http://www.w3.org/2000/svg" viewBox="0 0 500 500"><defs><style>.cls-1{isolation:isolate;}.cls-2{fill:#fb6c85;}.cls-3{fill:none;}.cls-4{fill:#e5966e;}.cls-5,.cls-6{fill:#db784d;}.cls-6{opacity:0.53;mix-blend-mode:multiply;}.cls-7{fill:#ffdee7;}.cls-8{fill:#eaeaea;}.cls-9{fill:#dadada;}.cls-10{fill:#ffc0ce;}.cls-11{fill:#ff8aa3;}.cls-12{fill:#ff5a79;}</style></defs><g class="cls-1"><g id="OBJECT"><path class="cls-2" d="M332.49,499.43c-2.57-10.37-6.07-29.27-11.09-38.86-4.26-8.13-10.06-15.3-14-23.7a112.74,112.74,0,0,1-8.8-27c-.57-3-.45-5.91-3.82-6.48-2.7-.46-5.42.13-8.13.1q-6.69-.08-13.4-.09c-25.74,0-51.54,1.87-77.28.86-3.73-.15-5.79,0-6.33,3.94-1.9,2.3-1.83,7.4-2.54,10.24a103.25,103.25,0,0,1-3.82,12.16c-3.65,9.56-9.43,17.53-14.11,26.5a168.61,168.61,0,0,0-10.64,25.26,149.54,149.54,0,0,0-3.72,17.07H333.38C333,498.25,332.64,500,332.49,499.43Z"/><path class="cls-3" d="M332.28,498.53l0,0a.68.68,0,0,1-.11-.3A.62.62,0,0,0,332.28,498.53Z"/><path d="M356,334.72a7.71,7.71,0,0,0-.53-1.08c-1.89-3.1-5.31-4.74-4.56-9,.61-6.25.24-13.09-3.89-18.18-8.46-9.32-13.08-7.5-14.07-22.05.4-3.32.85-6.69.11-10-1.57-7.83-6.77-14.64-13.06-19.39-2.79-2.1-5.92-3.87-8.16-6.55-4.56-5.46-.74-11.1-.78-17.23a12.94,12.94,0,0,0-5.71-10.53c-1.68-1.11-3.61-1.81-5.26-3-11.38-8-4.67-24.6-15.14-33.61a18.07,18.07,0,0,0-13.77-4.45c-8,1-12.16,4.55-20.5,3-18.28-3.4-33.67,9.74-38.24,26.65a34.19,34.19,0,0,0-.83,7.2A44.6,44.6,0,0,0,213,230.91c1,3.53,2.22,7.32,1.25,11-.11.66-.87,1.55-.58,2.16a48.91,48.91,0,0,0-4,4.25c-4.3,5.51-8.09,13.42-5.93,20.49a12.92,12.92,0,0,0,7,8.11c2.19,3.79,6.06,6.59,7.07,11,1.55,9.34-.37,19.09,2.46,28.29,3.95,15,12.66,12.47,22.44,20.35,6.8,5.55,10.37,16.31,20.18,17.17,4.25.39,8.38-.9,12.46-1.89a57,57,0,0,1,16.08-1.24c13.19,1,26.4,2.05,39.63,1.17,8.24,0,15.24.7,21.2-5,.29-.24.55-.46.73-.59a18.26,18.26,0,0,0,2.5-2.31C357.83,341.37,357.76,337.47,356,334.72ZM239.57,184.66h0Z"/><path class="cls-4" d="M259.06,272.23c-.05-.68-.11-1.37-.15-2.06v0c0-.14,0-.29,0-.43,0-.89-.07-1.79-.12-2.68a26,26,0,0,1,.38-4.9,15,15,0,0,1,1-3.53h0c4.24-3.54,8.4-7.42,10.27-12.74a95.47,95.47,0,0,0,3.42-11.67c3,0,6.73-.88,8.09-2.86a6.42,6.42,0,0,0-1.07-7.79,10.16,10.16,0,0,0-6.27-2.87q-.09-.75-.24-1.5c-1.29-6.23-2.84-13.23-7.87-17.51a23.88,23.88,0,0,0-6.13-4.91c-5.46-3-11.95-3.4-18.06-2.93-7.68.9-17.23,4.17-22.38,10.33a.77.77,0,0,0-.37.25c-.43.55-.84,1.12-1.22,1.7a19.93,19.93,0,0,0-2,3.78,29.68,29.68,0,0,0-1.24,4,34,34,0,0,0-.77,4.38c-.1.88-.16,1.77-.2,2.66a10.83,10.83,0,0,0-3,.78c-3.85,1.48-6.32,6.43-4.16,10.19,1.86,2.64,5.48,2.89,8.52,3.07.05.21.09.42.15.63.31,1.27.67,2.54,1.05,3.8.23.73.45,1.47.71,2.19s.48,1.25.75,1.86c.54,1.25,1.16,2.48,1.82,3.67a36.66,36.66,0,0,0,2.26,3.63,25.3,25.3,0,0,0,3.08,3.54c1,.94,2,1.87,3,2.77a36.47,36.47,0,0,0,3.31,2.64l.1.06c-.11.59-.21,1.18-.31,1.78s-.37,1.38-.56,2.06q-1.47,5.31-3.37,10.49c10.65.87,21.26,1.48,31.86,1.72C259.27,274.61,259.15,273.42,259.06,272.23Z"/><path class="cls-4" d="M103,359.18a1.11,1.11,0,0,1-.13-.27l-.06-.11c-1.4-3.49-2.24-7.07-3.45-10.6-1.14-3.34-2.45-6.62-3.46-10-1-3-1.88-6.1-3.09-9.06-.29-.64-.46-1.36-.81-2-2.58,1.36-5.24,2.54-7.91,3.69-3.87,1.57-7.52,4.29-11.85,4.24-3.12,0-5-3-2.86-5.51a6.28,6.28,0,0,1,.91-.8l1.78-.7c.94-.36,1.89-.7,2.83-1,1.88-.68,3.75-1.38,5.65-2l2.85-.9,1.4-.46.67-.23a4.44,4.44,0,0,0,.61-.22.58.58,0,0,0,.33-.49h0a.59.59,0,0,0-.63-.62c-.13,0-.26.05-.39.07l-.29.06a4.5,4.5,0,0,0-.51.08l-.65.14c-.49.11-1,.23-1.47.37-.92.25-1.82.54-2.72.84l-2.63.85c-1.8.57-3.61,1.12-5.42,1.68l-.66.21c-3,.63-5.86.9-7.83.27-2.51-.73-3.51-4.51-.85-5.72l.61-.2.88-.17L67,320l3.24-.57c1.08-.18,2.15-.38,3.23-.57s2.14-.36,3.21-.56,2.11-.41,3.16-.63l1.59-.31.81-.16.36-.08a1,1,0,0,0,.29-.09.61.61,0,0,0,.33-.59.6.6,0,0,0-.35-.5.73.73,0,0,0-.46,0l-.11,0-.51.05-1,.1-2.07.26c-1,.13-2,.28-3,.44l-1.47.23-.73.12-.43.06-.16,0a.32.32,0,0,1-.13,0l-.08,0-1,.16h-.08l-.12,0h.05c-1.12.18-2.25.38-3.38.54s-2.06.24-3.09.35c-.51.06-1,.13-1.53.18-2.12-.24-3.94-1.1-3.66-3.66.49-2.95,4.2-2.77,6.51-2.93l.52,0h1.33l1.93-.08h-.09q1.53-.06,3.06-.18l2.89-.21.52,0,2.2-.13c.53,0,1.06,0,1.58-.09l1-.07h.2a1.57,1.57,0,0,0,.71-.12h0a.7.7,0,0,0,.28-.26.77.77,0,0,0-.09-.92.89.89,0,0,0-.69-.25c-.4,0-.8,0-1.2,0-.57,0-1.13.06-1.7.09l-2.2.17-1.47,0c-1.14,0-2.28,0-3.42,0H70.08q-.77,0-1.53-.09c-.93-.08-1.85-.2-2.77-.34s-2-.32-2.94-.53l.12,0-.59-.13-.45-.34A2.21,2.21,0,0,1,62,305c1.25-.72,2.79-.42,4.16-.35a132.15,132.15,0,0,0,14.49,0,34.68,34.68,0,0,0,12-2.42,25.23,25.23,0,0,0,6.1-3.16,5.15,5.15,0,0,0,.77-.54,1.19,1.19,0,0,0,.41-.08.92.92,0,0,0,.55-.88,1.1,1.1,0,0,0-.44-.79.8.8,0,0,0-.21-.15l-.08-.06-1-.84c-.59-.49-1.19-1-1.8-1.43l.09.06c-.43-.33-.86-.65-1.29-1s-.72-.61-1.08-.93A13,13,0,0,1,93,290.48c-.14-.21-.26-.43-.38-.65l0,0a5.4,5.4,0,0,1-.25-.67c0-.19-.09-.39-.12-.58a2.45,2.45,0,0,1,0-.27c0-.15,0-.3,0-.44s.07-.41.12-.61.12-.37.19-.55.18-.25.29-.38c2.76-2.75,7.8.06,10.39,1.9,4.2,3.1,6.66,8,8.27,12.83,2.39,6.3,4,12.85,6.26,19.19,2.21,6.58,4.25,13.22,6.82,19.68.64,1.59,1.22,3,1.89,4.52.46,1,1,2,1.41,3a3.8,3.8,0,0,1,.5,1.79,1.22,1.22,0,0,1-1,.85c-1.12.51-2.21,1.1-3.36,1.54-3.07,1.13-6.18,2.14-9.22,3.35s-6.11,2.24-9,3.63c-.65.19-1.43.94-2.12.94A.84.84,0,0,1,103,359.18Z"/><path class="cls-5" d="M105.08,312.39c-4.36-1.56-7.67-6.33-6.29-11a14,14,0,0,1,1-2.5c.21-.57.77-1.1,1.39-.75,1,.57,0,1.53-.23,2.24-2.22,4.24.49,8.86,4.71,10.4A.85.85,0,0,1,105.08,312.39Z"/><path class="cls-4" d="M383.82,359.36c-.69,0-1.48-.75-2.12-.94-2.94-1.39-6-2.44-9.05-3.62s-6.15-2.22-9.22-3.36c-1.15-.44-2.24-1-3.36-1.54a1.19,1.19,0,0,1-1-.85,3.72,3.72,0,0,1,.5-1.79c.43-1,.95-2,1.4-3,.68-1.53,1.26-2.92,1.9-4.52,2.57-6.45,4.61-13.1,6.81-19.68,2.29-6.33,3.88-12.89,6.27-19.18,1.61-4.86,4.07-9.74,8.27-12.83,2.59-1.85,7.63-4.65,10.39-1.9a3.37,3.37,0,0,1,.29.37c.07.18.13.37.18.55a4.11,4.11,0,0,1,.12.61c0,.15,0,.3.05.45s0,.17,0,.26a3.95,3.95,0,0,1-.38,1.25v0c-.12.22-.25.44-.39.65a13.47,13.47,0,0,1-1.76,1.94c-.36.31-.71.63-1.08.92s-.86.66-1.29,1l.09-.06c-.61.47-1.21,1-1.81,1.44-.33.27-.65.55-1,.83l-.08.07a1,1,0,0,0-.22.14,1.14,1.14,0,0,0-.43.79.91.91,0,0,0,.55.88,1.19,1.19,0,0,0,.41.08,4.51,4.51,0,0,0,.77.54,24.54,24.54,0,0,0,6.1,3.16,34.88,34.88,0,0,0,12,2.43,132.15,132.15,0,0,0,14.49,0c1.37-.06,2.91-.36,4.16.36a2.21,2.21,0,0,1,.11,3.5c-.15.11-.3.23-.46.33l-.58.14.12,0c-1,.22-1.95.39-2.94.54s-1.84.25-2.77.33q-.76.08-1.53.09h-1.74c-1.13,0-2.27,0-3.41,0l-1.47,0-2.2-.16-1.7-.1c-.4,0-.8,0-1.2,0a.92.92,0,0,0-.69.25.79.79,0,0,0-.1.92.77.77,0,0,0,.28.26h0a1.55,1.55,0,0,0,.71.13h.2l1,.07,1.59.1,2.2.12.52,0c1,.06,1.93.13,2.89.21s2,.13,3.06.18h-.09l1.93.08h1.32l.53,0c2.31.16,6,0,6.51,2.93.28,2.56-1.54,3.43-3.66,3.67l-1.53-.18c-1-.11-2.07-.21-3.1-.35s-2.25-.37-3.37-.55h.05l-.12,0h-.08l-1-.16-.08,0a.32.32,0,0,1-.13,0l-.16,0-.43-.07-.73-.12-1.48-.23c-1-.16-2-.3-3-.44l-2.08-.25-.95-.11-.51-.05-.11,0a.73.73,0,0,0-.46,0,.61.61,0,0,0-.35.5.62.62,0,0,0,.33.6,1.38,1.38,0,0,0,.29.08l.36.08.8.16,1.6.32,3.16.62c1.07.2,2.14.37,3.21.56l3.23.58,3.24.56,3.19.59.88.16.61.2c2.66,1.21,1.65,5-.86,5.72-2,.63-4.82.36-7.82-.27l-.67-.2c-1.8-.56-3.61-1.11-5.41-1.68l-2.63-.86c-.9-.3-1.8-.59-2.72-.84-.49-.13-1-.26-1.47-.37l-.66-.14-.5-.08-.3-.05a2.33,2.33,0,0,0-.38-.08.59.59,0,0,0-.63.62h0a.59.59,0,0,0,.32.48,4.62,4.62,0,0,0,.62.23l.67.22,1.4.46,2.85.9c1.9.61,3.77,1.32,5.65,2l2.83,1,1.78.7a6.21,6.21,0,0,1,.9.8c2.15,2.54.27,5.5-2.85,5.51-4.33.05-8-2.66-11.85-4.24-2.67-1.15-5.34-2.33-7.91-3.68-.35.61-.52,1.33-.81,2-1.21,3-2.11,6-3.09,9.06-1,3.38-2.33,6.66-3.46,10-1.22,3.53-2.05,7.11-3.45,10.6a.75.75,0,0,1-.07.12.83.83,0,0,1-.8.62Z"/><path class="cls-6" d="M381.79,310.62c4.22-1.54,6.93-6.16,4.7-10.39-.27-.72-1.19-1.68-.22-2.25.62-.34,1.18.18,1.39.75a14,14,0,0,1,1,2.5c1.38,4.65-1.93,9.43-6.29,11A.85.85,0,0,1,381.79,310.62Z"/><path d="M278.11,216c.06,2.15-.7,6.35-3.69,5.33-2.19-1.12-3-3.73-4.07-5.77-5-9.82-6.94-15.64-18.2-19.52-6.85,10.4-18.54,15.78-29.13,21.52-2.24,1-7.84,5.11-9.93,3.38-1-1.47-.68-3.47-.53-5.15a25,25,0,0,1,6-12.71c8.3-10.13,22.3-14,35-12.07.4-.63.75-1.29,1.12-1.93a.79.79,0,0,1,1.27.93c-.22.45-.47.87-.73,1.3,6.47,1.05,11.53,5.23,15.57,10.16a39.34,39.34,0,0,1,5.68,8.23A14.77,14.77,0,0,1,278.11,216Z"/><path d="M283.11,230.1c0-.14,0-.28,0-.41a4.81,4.81,0,0,0-.12-.76,9.5,9.5,0,0,0-.41-1.38,12.22,12.22,0,0,0-.64-1.43,7.4,7.4,0,0,0-1.22-1.85,7.66,7.66,0,0,0-.57-.57c-.14-.11-.27-.22-.42-.32s-.3-.18-.46-.26L279,223a8.15,8.15,0,0,0-.82-.2c-.44-.08-.87-.13-1.3-.22a5.92,5.92,0,0,1-1.59-.57,7.09,7.09,0,0,1-3-3.26,15.72,15.72,0,0,1-.62-1.61c-.15-.43-.28-.86-.43-1.28-.62-1.72-1.32-3.41-2-5.11l-.75-1.92c-.11-.28-.22-.56-.34-.84s-.13-.33-.18-.5a.78.78,0,0,1,.54-1,.79.79,0,0,1,1,.54l0,0c.06.18.14.36.21.53.14.33.26.65.39,1,.26.67.51,1.33.77,2,.41,1,.82,2,1.21,3.06.23.59.46,1.18.67,1.77s.4,1.22.59,1.72a8,8,0,0,0,.47,1.14,6.71,6.71,0,0,0,.4.68,7.42,7.42,0,0,0,.49.62l.42.42a4.82,4.82,0,0,0,.51.38,4.07,4.07,0,0,0,.53.31,3.38,3.38,0,0,0,.44.18c.25.08.5.14.71.19h0c.43.08.86.13,1.29.22l.67.17a4.32,4.32,0,0,1,1.05.47,7,7,0,0,1,1.33,1.09,8.82,8.82,0,0,1,1.36,1.85,14.28,14.28,0,0,1,1.44,3.58,8.08,8.08,0,0,1,.21,1.63.8.8,0,0,1-.78.8h0A.8.8,0,0,1,283.11,230.1Z"/><path d="M283.32,232.76a.8.8,0,0,1,.57-1.42A.8.8,0,1,1,283.32,232.76Z"/><path d="M300.88,417.85a40.45,40.45,0,0,0-1.46-7.31,3.16,3.16,0,0,0-.75-1.48,2.91,2.91,0,0,0-1.39-.67,24,24,0,0,0-5-.21c-2.42.09-4.84.15-7.26,0a43.31,43.31,0,0,0-5.92.1,13.5,13.5,0,0,0-1.39.12.78.78,0,0,0-.87.7c0,3.81.17,7.6.5,11.4a1.12,1.12,0,0,0,.11.47.84.84,0,0,0,.94.3l-.25.09a3.63,3.63,0,0,1,.93,0h1.1c.68,0,1.35,0,2,0,1.4,0,2.81-.09,4.21-.12,2.46-.05,5-.05,7.46,0l3.77,0c1,0,2.42.33,3.06-.64a3.89,3.89,0,0,0,.16-2.53A2.45,2.45,0,0,1,300.88,417.85Z"/><path d="M274.59,416.87c0-1.21,0-2.42-.09-3.63s.36-3.51-1.11-4.14a4.06,4.06,0,0,0-1.62-.23c-8.5-.07-17,.17-25.48.41s-17.2.3-25.8.17c-1.5,0-3-.13-4.47-.21-.66,0-2.5-.51-2.67.9,0,0,0,0,0,0-.1,1.7-.16,3.13-.2,4.35-.06,1.76,0,3.31,0,5a2.26,2.26,0,0,0,.88,2.1,3.41,3.41,0,0,0,1.33.31c4.08.28,8.17.13,12.26.21,8.52.19,17,.18,25.54.16,5.84,0,11.69.08,17.54.18,2,0,4.06-.37,4-2.75Q274.61,418.31,274.59,416.87Z"/><path d="M208.43,408.5l-10.46.3c-2.34.07-6.89-.66-8.75,1.08s-1.75,5.4-2.54,7.68c-.43,1.25-.69,2.71.7,3.44s2.93.41,4.28.42l5.38.07c2.48,0,5,.05,7.44.08,1.5,0,3.32.38,4.68-.47,1.78-1.12,2.26-3.67,2.55-5.49.25-1.59,1.2-5.81-.83-6.87a3.68,3.68,0,0,0-1.84-.26Z"/><path class="cls-7" d="M258.39,413.12a11.34,11.34,0,0,0-3.91-5.08c-5.67-4.1-15.13-4.62-20.41.48-6.26,6.06-3,15.81,4.72,18.65s20.4-.35,20.33-10.22A11.13,11.13,0,0,0,258.39,413.12Zm-19.06,0a5.09,5.09,0,0,1,1.37-1.2,6.93,6.93,0,0,1,7.13.4c2.91,1.89,3.78,6.54.19,8.31s-10-.12-9.76-4.75A4.92,4.92,0,0,1,239.33,413.14Z"/><path class="cls-8" d="M429.05,352.23c-.62-1.05-3.41-1.75-4.58-2.47-2.68-1.28-5.33-2.63-8.06-3.8-13.45-5.55-27.27-10.11-40.87-15.25l-4.92-2.11a.82.82,0,0,0-.37-.31c-1.76-.75-3.56-1.4-5.31-2.16l0,0s0,0,0-.06a.79.79,0,0,0-1.08-.27c-.6.48-.44,1.44-.78,2.11-3.85,10.82-7.41,21.74-11.25,32.56-.29.81-.59,1.61-.89,2.42-1.13-2.62-2.3-5.23-3.3-7.91a280.65,280.65,0,0,0-16.86-36.52c-5.92-10.94-10.56-22.51-16.47-33.47a27.54,27.54,0,0,0-7-8c-9.82-6.18-22.15-5.9-33.36-5.77-3.36.1-6.71.28-10.07.47a7,7,0,0,1-1.61.06c-.26-.38-.51-.77-.75-1.16-.56-.75-2.49-4.33-3.57-5.36a.81.81,0,0,0-.12-.29.79.79,0,0,0-1.1-.2c-1.22.93-2.39,1.92-3.6,2.88a62.46,62.46,0,0,1-6.13,4.33c-.88.42-1.84,1.28-2.86,1a18.28,18.28,0,0,1-3-1.86c-2.2-1.64-4.23-3.53-6.54-5-.67-.41-1.33-.88-2-1.25-1-.71-2.36-1.95-3.31-1.46-.8.43-.91,1.37-1.1,2.22-.13.37-.27.75-.4,1.13a13.31,13.31,0,0,0-.84,1.64c-.47,1-.93,2-1.39,3l-.51.93c-2.75-.11-5.49-.4-8.23-.7a.66.66,0,0,0-.36-.11l-1.79,0a89.79,89.79,0,0,0-13.32.29c-5.06.28-10.21.91-14.77,2.8-15.63,5.63-21.44,24-27.65,38.1-2.68,6.41-5.91,12.55-9,18.78-1.12,2.42-2.06,4.9-3,7.4-.6,1.16-1.2,2.33-1.78,3.51-2.85,5.29-4.93,10.93-7.33,16.42-1.16,1.52-2.27,2-2.87-.44-1.4-3.86-2.73-7.75-4.07-11.64a.75.75,0,0,0,.26-1q-1-2.35-2.06-4.74c-.23-.51-.45-1-.67-1.55q-.84-2.55-1.65-5.12c-.34-.7-.32-2.24-1.29-2.24-.53-1.33-1-2.66-1.58-4A.81.81,0,0,0,124,327a.77.77,0,0,0-1.33-.32c-1,0-2.55,1-3.4,1.16-8.58,3.25-17.18,6.46-25.82,9.56q-13.86,5-27.23,11.27c-1.06.72-8.82,3.41-7.81,4.69a.78.78,0,0,0,1,.36c2.24,4.31,5.64,8.15,8.4,12.18a227,227,0,0,0,20.68,25.52c11.13,12.42,23,25.8,39.55,30.73,2.61.57,5.6,1.39,8.22.76a20.6,20.6,0,0,0,5.33-1,4.45,4.45,0,0,1,.94-.32,8.71,8.71,0,0,0,.86-.17,15.28,15.28,0,0,0,2.78-1.05,27.22,27.22,0,0,0,3.75-2.32,36.4,36.4,0,0,0,3.59-3c1.2-1.13,2.36-2.29,3.45-3.53s2-2.44,3-3.73a90.14,90.14,0,0,0,5.23-8.42c.77-1.37,1.52-2.76,2.23-4.16.34-.68.68-1.37,1-2.06.05-.1.09-.2.14-.29s.14-.3.21-.44.17-.36.25-.53l.54-1.15c.36-.75.71-1.49,1.06-2.24q1-2.18,2.06-4.35c1-2,1.94-4,2.91-6.05l.08-.18.12-.23c.07-.13.12-.26.18-.39l.54-1.12,1-2.15c.68-1.44,1.35-2.88,2-4.31h0l0-.08c.91-1.91,1.88-3.83,2.84-5.74q1.31-2.62,2.64-5.22c-.29,2.11-.6,4.21-1,6.32-1.12,6.86-2.67,13.67-3.29,20.61-.29,4.51.08,9.82,3,13.5s7.91,4.64,12.29,5c15.21,1.38,30.8,1.15,46,.69,11.25-.35,23.73-.41,35-.62,8.32-.15,19.44,1.95,26.15-4.75,2-2,2.83-4.8,3.38-7.54,1.82-9.07.7-18.44-.51-27.61.41,3.11,3.7,7.33,5.09,10.21q2.7,5.58,5.25,11.23c2.88,6.38,5.21,13.11,9,19a38.18,38.18,0,0,0,28.43,17.8,27.7,27.7,0,0,0,6.87-.72c.74.18,1.88-.36,2.59-.43,5.92-1.39,10.87-5.12,15.55-8.82,17.3-14.27,31.86-31.67,44.38-50.21,1.74-2.62,3.31-5.35,5-8a.87.87,0,0,0,.14-1.14A.76.76,0,0,0,429.05,352.23Z"/><path class="cls-2" d="M91.33,339.19a.79.79,0,0,0-1.07.32c-3.47,15.84-4,32.18-4,48.36a.79.79,0,0,0,1.57,0c0-3.19,0-6.39.08-9.58.29-12.29,1-24.57,3.48-36.64C91.43,340.83,92.17,339.73,91.33,339.19Z"/><path class="cls-2" d="M113.36,331.23c-.55,6.23-1.5,12.41-2.22,18.61-.72,5.92-1.08,11.87-1.66,17.81-1.21,11.57-2,23.17-3.18,34.74-.24,2.16-.48,4.31-.62,6.47a.79.79,0,0,0,.69.87c.88.08.92-.87.93-1.52q1.28-12.18,2.19-24.38c1.67-16.59,2.92-33.21,5.18-49.74a26.81,26.81,0,0,0,.25-3.09A.79.79,0,0,0,113.36,331.23Z"/><path class="cls-2" d="M130.61,355c-.54,5.09-.83,10.23-1.24,15.34-.83,17.13-.26,34.29-1.11,51.42a.8.8,0,0,0,.81.77.78.78,0,0,0,.77-.8c0-1.07.07-2.14.11-3.2.16-5.4.37-10.8.46-16.2-.06-15.65.14-31.31,1.71-46.9A.79.79,0,0,0,130.61,355Z"/><path class="cls-2" d="M157.9,320s0-.07,0-.11v0a.79.79,0,0,0-1.57,0c-.49,5.54-.68,11.11-.94,16.66-.18,6.53-.75,13-1.27,19.55-.54,8-.27,16.09-.32,24.14,0,10.78-1.23,21.53-1.23,32.32a.79.79,0,0,0,1.58,0q0-3.78.18-7.54c.37-9,1.18-18,1.06-27.1,0-6.43-.13-12.87.16-19.29.31-5.67,1-11.44,1.21-17.14.32-7.15.54-14.32,1.13-21.46a.3.3,0,0,1,0,.1A.43.43,0,0,0,157.9,320Z"/><path class="cls-2" d="M157.9,320h0s0,0,0-.07S157.9,320,157.9,320Z"/><path class="cls-2" d="M187.43,273.79c-1.08.28-.58,1.7-.79,2.54-.6,11.18-2.8,22.17-4.42,33.23A525,525,0,0,0,178.11,365a.79.79,0,0,0,1.58,0c.11-4.61.15-9.22.37-13.82.28-5,.72-10,1.12-15,.72-10.51,1.75-21,3.33-31.42a255.5,255.5,0,0,0,3.72-28.64C188.23,275.33,188.74,273.75,187.43,273.79Z"/><path class="cls-2" d="M208.64,271.43a.79.79,0,0,0-1.1.15c-.45,1.95,0,4.11-.28,6.12-1.2,13.72-2.26,27.45-2.67,41.22-.49,8.24-1.52,16.49-2.07,24.74-.87,14.08-2.29,28.13-2.73,42.25-.18,4.15-.16,8.3-.23,12.46.17.88-.63,4.23.62,4.21,1.49.06.74-2.78.95-3.9,0-1.58.05-3.17.06-4.75.06-9,.65-18.06,1.18-27.08.71-8.6,1.38-17.21,1.92-25.83,1-11.14,2.09-22.26,2.37-33.44.2-11.34,2.05-22.59,2.28-33.92C208.82,273,209.24,272,208.64,271.43Zm.19,1.06a.82.82,0,0,0,.1-.26A.82.82,0,0,1,208.83,272.49Z"/><path class="cls-2" d="M245,397.93c-.07-5.95-.26-11.89-.37-17.84-.07-21.65-.65-43.28-1.2-64.91.28-12.23.56-24.47,1.15-36.68.14-1.81.3-3.63.5-5.43a.79.79,0,0,0-1.58,0c-1.31,13-1,26.16-1.63,39.23-.05,9.27.47,18.55.59,27.82.64,20.3.45,40.62,1,60.92a.8.8,0,0,0,.8.78C245.64,401.64,244.77,399.11,245,397.93Z"/><path class="cls-2" d="M266.67,393c-.64-13.14-1.75-26.26-1.77-39.42-.09-21.29-1.23-42.54-2.29-63.79-.22-5-.41-10-.22-15,0-.47.25-1.27-.08-1.72a.8.8,0,0,0-1.41.41v.09a.31.31,0,0,0,0,.1.28.28,0,0,1,0-.09c-.48,21.07,1.93,42.12,2.19,63.19.13,14.73.27,29.45,1.36,44.14.41,7.14.51,14.32,1.68,21.39a.79.79,0,0,0,1.57-.23C267.18,399.06,266.91,396,266.67,393Z"/><path class="cls-2" d="M260.9,273.47h0Z"/><path class="cls-2" d="M260.9,273.56v0h0Z"/><path class="cls-2" d="M260.9,273.56v0Z"/><path class="cls-2" d="M287.43,392.67c-.8-11-1.41-22-2.65-33a589.08,589.08,0,0,1-3.4-81.86c0-1.89,0-3.79-.09-5.68a.79.79,0,0,0-1.57.09c-.06,21.14-.55,42.31,1.35,63.41.69,10.21,1.71,20.4,2.78,30.58,1.24,11.65,1.44,23.39,2.87,35,.13,1,1.7.75,1.56-.22C288,398.23,287.64,395.46,287.43,392.67Z"/><path class="cls-2" d="M308.75,355.14a84.51,84.51,0,0,1-1.6-12c-1-14.18-2.63-28.31-3.9-42.47-.59-6.47-.92-13-1.24-19.46-.24-2.64,0-5.36-.39-8a.8.8,0,0,0-1.47.41c.42,19.24,2.62,38.35,4.48,57.48.62,6.54.86,13.14,1.72,19.65.34,2.27.8,4.39,1.28,6.65.62,2.67.77,5.65,1.26,8.39a.79.79,0,0,0,1.56-.27C309.9,362.09,309.6,358.57,308.75,355.14Zm-8.59-81.37a.28.28,0,0,0,0-.09s0,.07,0,.11Z"/><path class="cls-2" d="M335.22,409.16c-.34-7.31-1.16-14.58-1.52-21.89-.88-12.53-.88-25.1-1.79-37.63q-.12-14.2-1.09-28.38a.79.79,0,0,0-1.47-.39c-.18,2.4.28,4.9.31,7.33.34,6.61.64,13.22.63,19.84,0,3.53.42,7,.61,10.55.29,7.19.38,14.4.81,21.58.68,11.33,1.37,22.68,2.44,34a.79.79,0,0,0,1.56-.22C335.52,412.34,335.34,410.75,335.22,409.16Zm-4.4-87.92v0Zm0,.11a.74.74,0,0,1,0,.14A.74.74,0,0,0,330.82,321.35Z"/><path class="cls-2" d="M358.89,409.82a193.67,193.67,0,0,0-.62-27.57c-.36-4.18-.25-8.38-.68-12.55-.54-5.22-1.26-10.41-1.8-15.62a.79.79,0,0,0-1.58.1c.11.69.18,1.39.24,2.08.91,7.92,2,15.79,2.09,23.78a191.78,191.78,0,0,1,1,19.16c-.09,7.13-.57,14.27.25,21.37a.79.79,0,0,0,1.58,0c0-.53-.08-1.06-.13-1.59A73.2,73.2,0,0,1,358.89,409.82Z"/><path class="cls-2" d="M381.55,401.32c-.61-6-1.49-11.88-2.14-17.83-2.46-17-3.58-34.25-5.16-51.39-.09-.61.05-1.36-.33-1.89s-1.62,0-1.34.77q1.85,22.18,4.09,44.34c1.5,11,3,22,4,33.12a.79.79,0,0,0,1.56-.22C382.07,405.92,381.79,403.62,381.55,401.32Z"/><path class="cls-2" d="M401.68,389.77c-.48-3.18-.87-6.38-1.08-9.59-.44-5-.61-10.05-.76-15.09-.54-8.6-1.24-17.21-2.57-25.72,0-1.19-1.54-1.42-1.65-.22a257.69,257.69,0,0,1,2.74,28.29A181.25,181.25,0,0,0,400.12,390,.79.79,0,0,0,401.68,389.77Zm-5.88-50.14h0v0a.61.61,0,0,0,.16.16A.5.5,0,0,1,395.8,339.63Z"/><path class="cls-2" d="M225.74,271.26a.79.79,0,0,0-.67.88c0,1.4-.09,2.8-.14,4.2-.77,10.33-1,20.7-1.09,31.05-.27,11.77-1,23.52-1.52,35.27,0,6.13-1,12.19-1.35,18.3a226.36,226.36,0,0,0-.59,25.12c0,3.21,0,6.44-.15,9.65-.1,2-.33,4-.54,6.07a.8.8,0,0,0,.7.87.79.79,0,0,0,.87-.69c.26-2.53.53-5.06.6-7.6.32-8.48-.28-17,.18-25.44.32-7,1-14,1.64-21,.34-10.59,1.13-21.18,1.43-31.78.34-7.28.41-14.57.49-21.85s.81-14.27,1-21.42C226.71,272.18,226.67,271.19,225.74,271.26Z"/><path d="M237,285a.79.79,0,1,1,.8.78A.8.8,0,0,1,237,285Z"/><path d="M249.13,284.59a.79.79,0,1,1,.8.78A.81.81,0,0,1,249.13,284.59Z"/><path d="M236.56,299.36a.79.79,0,1,1,.8.78A.81.81,0,0,1,236.56,299.36Z"/><path d="M248.88,298.82a.79.79,0,1,1,.8.77A.79.79,0,0,1,248.88,298.82Z"/><path d="M248.7,310.7a.79.79,0,0,1,1.58,0,.8.8,0,0,1-.77.8A.81.81,0,0,1,248.7,310.7Z"/><path d="M236.5,321.47a.79.79,0,1,1,.8.78A.79.79,0,0,1,236.5,321.47Z"/><path d="M249.62,321.87a.79.79,0,1,1,1.58,0,.79.79,0,0,1-1.58,0Z"/><path d="M235.66,333.91a.79.79,0,1,1,.8.77A.8.8,0,0,1,235.66,333.91Z"/><path d="M249.17,334.32a.79.79,0,1,1,.8.77A.79.79,0,0,1,249.17,334.32Z"/><path d="M236.24,344.61a.79.79,0,1,1,.8.77A.8.8,0,0,1,236.24,344.61Z"/><path d="M249.28,344.41a.79.79,0,1,1,.81.78A.81.81,0,0,1,249.28,344.41Z"/><path d="M236.24,353.53a.79.79,0,1,1,.8.77A.79.79,0,0,1,236.24,353.53Z"/><path d="M248.62,353.09a.79.79,0,1,1,.8.78A.8.8,0,0,1,248.62,353.09Z"/><path class="cls-9" d="M186.58,356.57a.81.81,0,0,1-.77-.81c.19-4.31.62-8.59,1.23-12.86.4-2.78.69-5.57,1.14-8.35.08-.81.42-2.37,1.54-1.65a.89.89,0,0,1,.17,1.09c-.23,1.06-.37,2.14-.51,3.21-.52,4.26-1.21,8.57-1.6,12.82q-.25,2.88-.39,5.78A.81.81,0,0,1,186.58,356.57Zm2.52-22.28h.14l-.17,0Z"/><path class="cls-9" d="M305.59,362.06c-1.39-7.43-2.39-14.95-3.42-22.41-.25-1.49-.54-3-.83-4.44a1.72,1.72,0,0,1,0-1,.79.79,0,0,1,1.51.32c1.36,6.44,1.88,13,3,19.51.42,2.51.87,5,1.3,7.54a.87.87,0,0,1-.08.69A.8.8,0,0,1,305.59,362.06Z"/><path d="M239.86,226.33a.79.79,0,0,1,1.23,1c-1.76,3.47-.43,5.12,3.34,5a9.83,9.83,0,0,0,3.61-.89,2.29,2.29,0,0,0,1.13-3.12c-.67-1.1.7-2.09,1.34-.94,1.92,4.93-2.68,6.49-6.71,6.53C238.87,233.84,237.52,230.33,239.86,226.33Z"/><path class="cls-10" d="M262.66,240c-3,0-5.6-3.61-4.34-6.44a5.12,5.12,0,0,1,7-2.12,3.42,3.42,0,0,1,2.37,2.77,7.53,7.53,0,0,1-.21,3,5.57,5.57,0,0,1-4.69,2.76Z"/><path class="cls-10" d="M225.34,239.94c-3.2-1-3.67-4.77-1.77-7.24,2.23-2.9,6.38-1.66,7.92,1.29,1.47,3.12-1.88,6.12-4.94,6.12A4.07,4.07,0,0,1,225.34,239.94Z"/><path d="M229.81,222.59a3,3,0,0,1-2.26-4.31c-.19.11-.38.22-.56.34a8,8,0,0,0-2,2.28,9.56,9.56,0,0,1-.86,1.4.81.81,0,0,1-1.11-.13.82.82,0,0,1,0-1,13.3,13.3,0,0,1,1.66-2.53c3-3.68,10.12-3.91,12.3.68.35.76,1.51,2,.41,2.64-.77.29-1-.4-1.29-1s-.65-1.18-1-1.75a4.05,4.05,0,0,0-1.41-1.16.64.64,0,0,1,.08.14,3.15,3.15,0,0,1,.05,2.1,2.91,2.91,0,0,1-2.91,2.43A3.77,3.77,0,0,1,229.81,222.59Z"/><path d="M258.68,222.86c-2.44-.4-3.5-2.07-3-4a6.15,6.15,0,0,0-.78.59,7.23,7.23,0,0,0-1.29,1.36c-.56.69-1.18,2.69-2.28,1.56a.8.8,0,0,1,0-1,14,14,0,0,1,1.78-2.47,9.21,9.21,0,0,1,3.71-2.33c3-.79,6.6.07,8.42,2.63.4.74,1.62,2.1.44,2.67a.82.82,0,0,1-1.05-.54,5.33,5.33,0,0,0-1.71-2.27,6.63,6.63,0,0,0-.81-.48,3.93,3.93,0,0,1,.22,1.29,3,3,0,0,1-3,3A2.79,2.79,0,0,1,258.68,222.86Zm-6-.86a.66.66,0,0,0,0-.2A1.34,1.34,0,0,1,252.72,222Z"/><path class="cls-2" d="M243.63,247.8a7,7,0,0,1-1.43-.31,9.18,9.18,0,0,1-1.27-.47,6.5,6.5,0,0,1-1.29-.84c-.44-.38-.85-.79-1.25-1.21a7.05,7.05,0,0,1-1.66-2.61,3.55,3.55,0,0,1-.17-1.16,3.15,3.15,0,0,1,0-.53.83.83,0,0,1-.18-.42.85.85,0,0,1,.17-.58.66.66,0,0,1,.14-.15c.15-.17.29-.33.45-.48a3.13,3.13,0,0,1,1.07-1.36,6.25,6.25,0,0,1,2.2-.79,12.85,12.85,0,0,1,2-.65l.67-.13.1,0a13.48,13.48,0,0,1,2.77-.16,8,8,0,0,1,2.05.34,5.44,5.44,0,0,1,.52.19,5.6,5.6,0,0,1,.59.12,5.28,5.28,0,0,1,2,.95,4.43,4.43,0,0,1,.87.86,5.42,5.42,0,0,1,.58,1.09,4.8,4.8,0,0,1,.36,2,5.62,5.62,0,0,1-1.89,4l-.27.24-.19.16h0l-.22.18-.68.48a9.66,9.66,0,0,1-1.59.84,5.72,5.72,0,0,1-1.74.39.85.85,0,0,1-.52-.14,7.69,7.69,0,0,1-1.71.21A4.7,4.7,0,0,1,243.63,247.8Z"/><path class="cls-11" d="M277,243.56a6.83,6.83,0,0,1-5.36-5.74,7.84,7.84,0,0,1,.91-4.14c1.77-3.11,5.55-3.57,8.39-1.64a6.45,6.45,0,0,1,1.09,9.9A5.71,5.71,0,0,1,277,243.56Z"/><path class="cls-11" d="M209.47,243.63c-3.7-.75-6.89-4.19-3.75-8.71a6.07,6.07,0,0,1,4-2.73c3.84-.6,6.78,2.45,6.71,6.21C216.32,242.9,212.7,244.29,209.47,243.63Z"/><path d="M233.55,242.74c-.47-.74.21-1.28.92-1.37a22.43,22.43,0,0,1,3.65-.51c3.75-.08,3-2.09,6.63-2a5,5,0,0,1,2.53.82,3,3,0,0,0,1.28.6c2.31.41,4.68.5,7,1a.79.79,0,0,1-.23,1.56c-2.59-.62-5.32-.52-7.87-1.26-1-.5-1.91-1.29-3.1-1.16-1.34-.07-2.22,1-3.34,1.51-2.07.72-4.46.37-6.53,1.07l.09,0,.09-.05A.81.81,0,0,1,233.55,242.74Z"/><path class="cls-12" d="M426.62,148.8c-15.68-13.9-31.87-13.26-47.68,1.27L393.86,165c5.35-5.1,12.36-6,18.36-1.28s9.69,11.22,7.65,16.32c-2.3,5.61-10.59,6.5-14.28,6.63-6.89.26-14.92-2.42-21.55-1.4s-12,5.61-18.36,11.47l13.14,13.13c4.07-3.82,8-7.26,12.23-7.9,6.89-1,13,1.53,19.76,1.91,6.38.51,13.65.64,19.76-4.46,18.62-14.28,13-35.7-3.95-50.61"/><ellipse class="cls-12" cx="358.8" cy="217.39" rx="11.54" ry="11.72" transform="translate(-48.61 317.43) rotate(-45.01)"/><path class="cls-12" d="M254.77,26.41c-28.35,1.71-43.26,17.84-44.49,46.93h28.6c.24-10,6.11-17.6,16.37-18.82,10.27-1,20.05,1.46,23,8.31,3.18,7.57-3.91,16.37-7.33,20-6.36,6.84-16.62,12-22,19.31-5.13,7.33-6.11,16.86-6.6,28.59h25.17c.25-7.58.74-14.66,4.16-19.31,5.62-7.57,13.93-11,20.77-17.11,6.6-5.62,13.69-12.46,14.67-23.21,4.15-31.53-21.75-46.68-52.3-44.73"/><ellipse class="cls-12" cx="255.5" cy="157.17" rx="15.89" ry="15.64"/><path class="cls-12" d="M126.73,182c-8.2,9.26-7.82,18.82.76,28.16l8.81-8.81c-3-3.16-3.54-7.3-.76-10.84s6.63-5.72,9.64-4.52c3.31,1.36,3.84,6.25,3.91,8.43.15,4.07-1.43,8.81-.82,12.72s3.31,7.08,6.77,10.84l7.75-7.75c-2.25-2.41-4.29-4.74-4.66-7.23-.61-4.06.9-7.68,1.13-11.66.3-3.77.37-8.06-2.64-11.67-8.43-11-21.08-7.68-29.89,2.33"/><path class="cls-12" d="M162.42,217.22a6.81,6.81,0,1,1-.08,9.71A6.87,6.87,0,0,1,162.42,217.22Z"/></g></g></svg>